<svg width="72" height="72" viewBox="0 0 72 72" fill="none" xmlns="http://www.w3.org/2000/svg" xmlns:xlink="http://www.w3.org/1999/xlink">
<path d="M36,66C47.577,66 57,56.577 57,45C57,33.423 47.577,24 36,24C24.42,24 15,33.423 15,45C15,56.577 24.42,66 36,66ZM36,30C44.271,30 51,36.729 51,45C51,53.271 44.271,60 36,60C27.729,60 21,53.271 21,45C21,36.729 27.729,30 36,30ZM33,6L21,6L21,22.554C24.59,20.152 28.706,18.65 33,18.177L33,6ZM51,6L39,6L39,18.177C43.294,18.65 47.41,20.152 51,22.554L51,6Z" fill="#0023DC"/>
<path d="M30.057,47.433L28.653,55.611L36,51.75L43.347,55.611L41.943,47.433L47.889,41.637L39.675,40.443L36,33L32.325,40.443L24.111,41.637L30.057,47.433Z" fill="#AB70DF"/>
</svg>
