<svg width="280" height="280" viewBox="0 0 280 280" fill="none" xmlns="http://www.w3.org/2000/svg" xmlns:xlink="http://www.w3.org/1999/xlink">
<circle cx="140" cy="140" r="140" stroke="#C4C4C4" stroke-width="10" stroke-miterlimit="3.999327"/>
<circle cx="140" cy="140" r="110" fill="#72BFC7"/>
<path d="M247,182L260.778,209L278,191L271.111,236L222.889,236L216,191L233.222,209L247,182Z" fill="#ECC055" stroke="#C4C4C4" stroke-width="1" stroke-miterlimit="3.999327" stroke-linecap="round" stroke-linejoin="round"/>
<path d="M140,102C129.661,102 121.25,110.523 121.25,121L121.25,132.4L117.5,132.4C115.511,132.4 113.603,133.201 112.197,134.626C110.79,136.051 110,137.984 110,140L110,170.4C110,172.416 110.79,174.349 112.197,175.774C113.603,177.199 115.511,178 117.5,178L162.5,178C164.489,178 166.397,177.199 167.803,175.774C169.21,174.349 170,172.416 170,170.4L170,140C170,137.984 169.21,136.051 167.803,134.626C166.397,133.201 164.489,132.4 162.5,132.4L158.75,132.4L158.75,121C158.75,110.523 150.339,102 140,102ZM128.75,121C128.75,114.715 133.798,109.6 140,109.6C146.202,109.6 151.25,114.715 151.25,121L151.25,132.4L128.75,132.4L128.75,121ZM143.75,161.747L143.75,170.4L136.25,170.4L136.25,161.747C134.939,160.987 133.886,159.841 133.231,158.462C132.575,157.082 132.347,155.534 132.578,154.021C132.808,152.508 133.485,151.101 134.52,149.986C135.556,148.871 136.9,148.1 138.376,147.775C139.473,147.529 140.61,147.536 141.703,147.795C142.797,148.054 143.819,148.558 144.695,149.271C145.571,149.983 146.277,150.886 146.763,151.912C147.248,152.938 147.5,154.062 147.5,155.2C147.498,156.529 147.15,157.834 146.492,158.983C145.833,160.133 144.888,161.086 143.75,161.747L143.75,161.747Z" fill="#000000" fill-opacity="0.5"/>
</svg>
