<svg width="232" height="210" viewBox="0 0 232 210" fill="none" xmlns="http://www.w3.org/2000/svg" xmlns:xlink="http://www.w3.org/1999/xlink">
<path d="M47.096,123.432C47.096,122.201 41.249,122.277 33.64,122.277C26.03,122.277 19.564,124.048 19.564,125.278C19.564,126.509 25.712,127.509 33.332,127.509C40.952,127.509 47.096,124.662 47.096,123.432Z" fill="#000000"/>
<path d="M29.246,97.818C29.246,97.74 29.168,97.663 29.168,97.586C28.63,95.893 29.707,95.662 31.091,96.278C32.322,96.816 33.783,98.74 35.091,98.431C37.014,97.967 35.787,95.739 34.938,94.817C33.476,93.048 32.014,91.432 30.707,89.586C29.86,88.355 29.091,86.663 30.091,85.585C31.251,84.356 33.322,85.353 34.476,86.513C35.629,87.744 37.091,89.206 38.707,88.744C40.09,86.668 38.707,83.899 36.938,82.206C35.169,80.437 32.938,78.976 32.168,76.667C31.629,75.052 32.322,72.822 34.014,72.591C34.633,72.606 35.234,72.804 35.74,73.16C36.247,73.516 36.636,74.014 36.86,74.591C37.269,75.766 37.838,76.879 38.552,77.898C39.321,78.826 40.937,79.36 41.861,78.514C42.096,78.243 42.266,77.922 42.359,77.576C42.452,77.229 42.466,76.866 42.399,76.514C42.023,74.64 41.052,72.937 39.63,71.659C38.221,70.368 37.14,68.76 36.476,66.967C35.938,65.122 36.708,62.814 38.476,62.275C39.36,62.107 40.275,62.274 41.043,62.743C41.811,63.213 42.377,63.952 42.63,64.815C43.168,66.354 43.244,68.584 44.86,68.892C46.399,69.199 47.398,67.354 47.475,65.815C47.629,63.046 46.399,60.354 46.091,57.585C45.784,54.816 46.706,51.437 49.322,50.662C51.552,49.966 54.09,51.59 55.014,53.739C55.809,55.988 55.754,58.45 54.86,60.662C54.09,62.892 53.014,65.046 52.321,67.274C52.2,67.541 52.143,67.834 52.157,68.128C52.17,68.422 52.253,68.709 52.398,68.965C52.936,69.661 54.167,69.35 54.783,68.657C55.399,67.965 55.711,67.043 56.398,66.504C57.859,65.35 60.244,66.581 60.706,68.427C60.855,69.352 60.748,70.3 60.395,71.168C60.042,72.037 59.458,72.791 58.705,73.35C57.219,74.463 55.622,75.419 53.94,76.203C52.787,76.818 50.787,77.894 50.247,79.203C49.171,81.818 53.94,79.125 54.478,78.739C55.786,77.739 57.863,76.97 58.939,78.275C59.171,78.624 59.308,79.028 59.335,79.447C59.362,79.865 59.279,80.284 59.094,80.66C57.401,85.198 49.863,85.198 48.171,89.736C49.478,90.352 51.016,89.504 52.247,88.736C53.478,87.968 55.248,87.429 56.325,88.428C58.401,90.428 55.786,92.966 54.094,94.121C51.787,95.659 48.094,95.281 46.479,97.505C46.33,97.651 46.216,97.829 46.145,98.025C46.075,98.221 46.05,98.431 46.072,98.638C46.094,98.846 46.163,99.045 46.274,99.222C46.385,99.398 46.534,99.548 46.711,99.658C47.257,99.94 47.892,99.995 48.48,99.813C50.326,99.505 52.479,99.428 52.403,102.043C52.403,103.812 50.941,105.043 49.634,106.043C46.787,108.197 40.711,112.197 36.942,110.428C32.944,108.2 30.476,101.894 29.246,97.818L29.246,97.818Z" fill="#FF465A"/>
<path d="M37.168,131.2C34.552,116.12 38.937,102.048 43.168,88.433C46.551,77.434 50.091,66.045 49.936,54.204L50.783,54.204C51.015,66.203 47.398,77.587 44.013,88.664C39.787,102.202 35.476,116.125 38.09,131.052L37.168,131.2Z" fill="#FFFFFF"/>
<path d="M14.553,113.509C14.466,113.413 14.361,113.335 14.245,113.277C12.477,111.662 13.631,110.662 15.553,110.432C17.323,110.2 20.323,111.432 21.707,110.2C23.706,108.353 20.63,106.66 19.014,106.046C16.169,104.969 13.322,104.122 10.477,102.892C8.708,102.052 6.63,100.587 7.015,98.663C7.479,96.433 10.553,96.202 12.784,96.74C15.015,97.278 17.707,98.049 19.245,96.356C19.399,93.049 15.938,90.741 12.707,89.895C9.477,89.049 5.863,88.895 3.399,86.741C1.63,85.203 0.938,82.126 2.784,80.741C4.169,79.741 6.091,80.277 7.552,81.125C8.853,82.206 10.272,83.135 11.783,83.895C13.399,84.434 15.552,83.972 16.013,82.356C16.092,81.866 16.064,81.365 15.931,80.888C15.799,80.41 15.564,79.966 15.244,79.587C13.706,77.511 11.168,76.587 8.706,75.818C6.245,75.049 3.707,74.357 1.862,72.588C0.018,70.819 -0.752,67.588 0.934,65.665C2.55,63.896 5.704,64.203 7.546,65.819C9.239,67.281 10.855,69.742 12.931,69.05C14.931,68.354 14.854,65.51 13.859,63.665C12.089,60.358 8.936,58.049 6.628,55.049C4.319,52.05 3.166,47.509 5.628,44.743C7.782,42.358 11.782,42.512 14.32,44.434C16.758,46.534 18.39,49.417 18.935,52.588C19.631,55.665 19.782,58.896 20.474,62.05C20.504,62.447 20.632,62.831 20.847,63.166C21.062,63.502 21.356,63.779 21.704,63.972C22.859,64.436 24.013,63.203 24.242,61.972C24.286,60.76 24.415,59.552 24.628,58.358C25.556,56.049 29.165,55.819 30.934,57.589C32.703,59.359 32.781,62.28 32.012,64.665C31.067,67.001 29.854,69.22 28.396,71.277C27.474,72.815 25.858,75.431 26.166,77.353C26.704,81.2 30.396,74.738 30.781,73.891C31.627,71.815 33.55,69.508 35.627,70.353C36.14,70.607 36.58,70.989 36.904,71.461C37.227,71.934 37.424,72.481 37.476,73.052C38.63,79.513 29.86,84.589 30.937,91.05C32.86,90.897 34.014,88.82 35.014,87.128C35.942,85.436 37.629,83.513 39.476,83.974C43.244,84.902 42.014,89.666 40.861,92.128C39.245,95.435 34.713,97.513 34.249,101.281C34.181,101.557 34.175,101.844 34.231,102.122C34.287,102.4 34.403,102.662 34.572,102.889C34.741,103.117 34.959,103.305 35.208,103.439C35.458,103.573 35.734,103.65 36.018,103.665C36.83,103.593 37.592,103.239 38.172,102.665C40.094,101.051 42.555,99.512 44.32,102.512C45.48,104.589 44.628,107.05 43.781,109.05C41.936,113.511 37.633,122.358 31.937,122.819C26.091,123.124 18.861,117.356 14.553,113.509L14.553,113.509Z" fill="#FDB849"/>
<path d="M34.552,135.123C33.819,130.946 32.765,126.831 31.398,122.816C30.47,119.816 29.476,116.739 28.784,113.662C27.937,109.893 26.937,106.047 25.937,102.355C24.932,98.684 24.008,94.991 23.168,91.279L22.936,90.202C19.783,75.973 16.556,61.202 8.784,48.588L9.712,47.974C17.558,60.742 20.789,75.587 23.942,89.971L24.174,91.049C25.02,94.74 26.02,98.51 26.943,102.048C27.943,105.741 28.943,109.588 29.789,113.433C30.498,116.502 31.371,119.532 32.404,122.508C33.841,126.561 34.922,130.73 35.635,134.97L34.552,135.123Z" fill="#FFFFFF"/>
<path d="M40.706,178.737C43.475,159.661 44.398,142.584 47.086,123.432C38.465,127.526 28.59,128.105 19.549,125.048C22.779,142.2 25.697,162.277 28.932,179.43C31.86,182.353 37.629,181.968 40.706,178.737Z" fill="#643CFF"/>
<path d="M95.627,81.125C105.392,62.715 121.482,48.455 140.933,40.974C153.01,36.358 166.547,34.594 178.931,38.282C195.546,43.281 208.008,57.665 214.93,73.511C221.854,89.357 224.084,106.894 226.16,124.124C227.854,137.663 229.468,151.123 231.16,164.66C232.314,174.276 233.236,185.122 227.084,192.659C223.314,197.275 217.622,199.735 211.931,201.506C197.238,206.121 181.701,206.89 166.394,207.505C129.626,208.89 92.858,209.122 56.09,208.201C44.783,207.894 32.86,207.356 23.476,201.047C19.399,198.279 15.861,194.355 14.707,189.51C13.779,185.587 14.553,181.433 15.784,177.51C23.015,154.819 44.86,140.819 62.321,124.512C77.896,109.924 90.601,92.548 99.781,73.284Z" fill="#14D29B"/>
<path d="M231.084,164.66C229.39,151.123 227.774,137.662 226.084,124.124C224.006,106.893 221.776,89.433 214.852,73.511C210.315,63.05 203.315,53.204 194.32,46.357C196.308,49.357 198.032,52.522 199.474,55.818C203.783,65.819 205.782,76.665 207.09,87.357C207.949,94.375 208.385,101.438 208.397,108.509C208.397,113.74 209.475,122.197 205.09,126.047C204.254,126.781 203.277,127.337 202.219,127.681C201.161,128.024 200.044,128.149 198.936,128.047C200.425,128.985 201.519,130.435 202.012,132.123C207.244,145.123 199.398,160.584 193.013,171.892C187.552,181.66 179.789,189.968 169.399,194.583C164.707,196.737 130.323,208.121 132.401,194.044C132.243,195.706 131.853,197.337 131.241,198.89C130.01,201.66 128.01,202.429 125.165,202.66C108.525,204.159 91.778,204.003 75.169,202.196C69.707,201.58 64.169,200.888 58.785,199.965C53.938,199.196 48.477,198.118 44.554,195.042C42.785,193.657 41.401,191.735 41.863,189.426C42.246,187.196 44.862,185.196 43.17,182.889C41.708,180.889 38.478,180.427 36.326,179.581C34.344,178.814 32.394,177.967 30.481,177.042C26.557,175.197 21.942,172.889 19.404,169.197L19.327,169.119C17.912,171.809 16.728,174.614 15.788,177.504C14.557,181.35 13.788,185.508 14.711,189.504C15.866,194.349 19.327,198.272 23.48,201.041C32.864,207.349 44.787,207.964 56.095,208.195C92.862,209.119 129.63,208.887 166.398,207.499C181.782,206.884 197.32,206.115 211.935,201.5C217.626,199.731 223.318,197.269 227.088,192.653C233.16,185.122 232.314,174.276 231.084,164.66L231.084,164.66Z" fill="#008C6E"/>
<path d="M86.781,157.584C83.899,158.894 81.522,161.108 80.012,163.891C79.012,165.815 78.397,167.969 76.859,169.507C73.628,172.661 67.858,171.583 64.551,174.583C69.705,173.507 75.012,175.047 79.863,177.122C84.714,179.198 89.401,181.66 94.631,182.584C100.779,183.66 107.093,182.352 113.4,181.888C119.707,181.424 126.477,182.12 131.169,186.349C130.631,180.733 134.553,175.657 139.245,172.503C143.937,169.349 149.398,167.349 153.706,163.657C160.318,158.043 163.321,149.351 166.86,141.428C170.399,133.505 174.552,126.044 182.859,123.044C179.013,122.659 176.705,121.505 174.854,118.352C173.009,115.275 172.624,111.508 172.47,107.813C172.149,101.583 172.252,95.338 172.778,89.122C173.624,82.583 175.931,75.276 171.162,72.43C162.625,67.354 133.702,80.814 129.01,90.122C122.78,102.352 122.63,116.89 116.857,129.275C110.934,141.739 99.319,151.892 86.781,157.584L86.781,157.584Z" fill="#008C6E"/>
<path d="M95.626,81.125C96.322,79.741 97.166,78.434 97.935,77.049C98.55,75.818 99.166,74.511 99.78,73.28L95.626,81.125Z" fill="#14D29B"/>
<path d="M116.857,163.815C117.785,167.431 118.78,171.123 120.933,174.123C121.934,175.43 123.241,176.968 122.703,178.584C122.239,180.199 120.242,180.737 118.626,181.353C114.934,182.737 112.088,185.66 109.088,188.197C106.011,190.736 102.244,192.889 98.319,192.197C98.107,192.173 97.902,192.107 97.717,192.001C97.531,191.895 97.37,191.753 97.242,191.582C96.778,190.813 97.706,190.044 98.402,189.582C102.248,186.89 103.864,182.121 106.633,178.352C107.739,177.07 108.67,175.648 109.401,174.121C110.709,170.967 109.556,167.429 108.473,164.199C110.32,163.611 112.232,163.249 114.166,163.121C114.638,163.047 115.12,163.07 115.583,163.189C116.046,163.308 116.48,163.521 116.857,163.815L116.857,163.815Z" fill="#9778FF"/>
<path d="M98.012,163.046C98.166,166.738 98.319,170.586 99.781,173.968C100.477,175.506 101.396,177.275 100.55,178.737C99.703,180.199 97.626,180.275 95.935,180.506C92.012,181.045 88.627,183.353 85.089,185.122C81.551,186.891 77.397,188.276 73.781,186.736C73.584,186.677 73.4,186.578 73.242,186.446C73.083,186.314 72.953,186.151 72.859,185.967C72.627,185.122 73.628,184.583 74.474,184.198C78.781,182.429 81.397,178.044 84.935,174.968C86.269,173.928 87.482,172.741 88.551,171.43C90.474,168.661 90.165,164.891 89.781,161.584C91.731,161.392 93.698,161.47 95.627,161.816C96.55,161.905 97.404,162.345 98.012,163.046L98.012,163.046Z" fill="#643CFF"/>
<path d="M126.549,11.975C126.009,11.142 125.659,10.199 125.526,9.215C125.393,8.231 125.48,7.23 125.78,6.283C126.548,4.223 128.057,2.522 130.01,1.513C132.709,0.031 135.868,-0.381 138.857,0.36C141.844,1.12 144.446,2.955 146.165,5.514C147.934,8.205 148.473,12.052 146.397,14.59C144.858,16.513 142.166,17.128 139.704,17.206C135.626,17.206 129.01,15.666 126.549,11.975L126.549,11.975Z" fill="#000000"/>
<path d="M125.78,13.436C128.472,10.975 132.548,10.744 136.01,11.821C138.04,12.386 139.859,13.536 141.24,15.128C141.924,15.919 142.407,16.864 142.648,17.882C142.889,18.9 142.881,19.96 142.625,20.974C142.342,21.978 141.736,22.86 140.902,23.485C140.068,24.11 139.052,24.444 138.01,24.436C137.1,24.333 136.215,24.073 135.395,23.667C132.376,22.259 129.448,20.666 126.625,18.897C124.395,17.513 123.473,15.515 125.78,13.436Z" fill="#D70A32"/>
<path d="M102.397,38.282C102.696,34.888 103.723,31.599 105.409,28.639C107.095,25.678 109.399,23.116 112.165,21.128C115.002,19.126 118.225,17.737 121.629,17.049C125.032,16.36 128.541,16.387 131.934,17.128C133.838,17.496 135.661,18.199 137.318,19.205C139.909,20.981 142.001,23.391 143.395,26.205C145.094,29.331 146.288,32.705 146.933,36.204C147.612,40.018 147.638,43.92 147.01,47.743C146.855,49.21 146.279,50.6 145.351,51.747C144.422,52.893 143.182,53.747 141.78,54.204C138.502,55.383 134.921,55.41 131.626,54.281C124.318,51.897 116.546,50.127 109.47,47.127C107.394,46.199 105.009,45.512 103.625,43.665C102.523,42.102 102.082,40.168 102.397,38.282L102.397,38.282Z" fill="#000000"/>
<path d="M80.935,55.666C82.782,51.512 86.704,49.054 91.474,46.743C95.612,44.822 100.144,43.9 104.704,44.052C104.934,45.183 105.268,46.29 105.704,47.359C97.55,51.744 87.935,55.589 81.166,61.975C77.859,58.589 74.704,55.28 71.244,52.056C70.947,49.424 70.921,46.769 71.167,44.133C72.504,44.309 73.79,44.762 74.942,45.463C76.094,46.165 77.088,47.098 77.859,48.204C79.665,50.293 80.744,52.911 80.935,55.666Z" fill="#FDB849"/>
<path d="M147.088,76.587C142.692,69.064 140.16,60.598 139.703,51.897C139.471,53.357 138.088,54.127 137.011,55.204C134.546,57.347 131.924,59.302 129.166,61.05C131.368,67.882 132.888,74.915 133.703,82.046C136.15,82.779 138.768,82.698 141.165,81.814C143.702,80.896 145.548,78.741 147.088,76.587Z" fill="#000000"/>
<path d="M166.009,129.585C166.856,112.509 167.317,102.279 168.163,85.273C168.395,80.581 168.627,75.812 167.235,71.353C165.843,66.894 162.543,62.738 158.005,61.585C152.62,60.276 147.237,63.43 142.461,66.277C137.685,69.124 131.769,71.738 126.77,69.353C124.385,68.193 123.539,65.046 121.154,63.892C118.923,62.732 116.078,63.66 114.231,65.354C112.473,67.186 111.158,69.396 110.386,71.815C101.848,93.429 103.386,104.737 108.847,127.351C112.319,129.278 147.933,130.893 166.009,129.585Z" fill="#643CFF"/>
<path d="M133.933,129.047C133.626,127.124 132.164,124.508 131.472,122.667C131.548,122.821 137.471,122.821 138.856,122.821C147.317,123.053 156.24,123.517 163.701,127.59C164.855,128.205 166.239,128.821 166.008,129.897C165.701,131.128 164.316,131.359 163.316,131.359C158.46,131.37 153.607,131.113 148.779,130.59C146.317,130.358 143.856,130.205 141.394,129.894C140.625,129.816 134.01,129.428 133.933,129.047L133.933,129.047Z" fill="#000000"/>
<path d="M94.55,92.587C92.627,86.439 84.935,83.279 78.781,85.126C72.627,86.973 68.167,92.666 66.32,98.894C64.474,105.122 65.244,112.814 66.936,119.047C72.398,139.662 76.936,151.431 84.32,168.811C88.782,171.196 97.704,169.811 101.858,167.273C100.781,155.581 99.55,150.581 98.319,141.504C97.088,132.427 97.935,125.89 94.705,117.274C97.076,109.208 97.023,100.623 94.55,92.587L94.55,92.587Z" fill="#D70A32"/>
<path d="M111.476,59.665C112.387,61.632 113.7,63.387 115.329,64.818C116.958,66.248 118.868,67.322 120.937,67.972C125.398,69.203 128.477,68.436 132.399,66.281C135.645,64.349 138.327,61.598 140.176,58.305C142.025,55.011 142.977,51.289 142.936,47.512C142.552,40.912 141.016,34.43 138.398,28.359C136.86,24.82 132.63,23.358 129.014,22.513C122.322,20.974 112.014,21.205 108.707,28.436C106.015,34.204 106.169,42.124 107.476,48.127C108.273,52.138 109.619,56.021 111.476,59.665L111.476,59.665Z" fill="#F7846C"/>
<path d="M112.012,29.974C113.249,29.009 114.722,28.393 116.277,28.191C117.833,27.988 119.414,28.205 120.857,28.821C121.907,28.371 123.056,28.206 124.19,28.341C125.324,28.476 126.403,28.907 127.318,29.59C128.968,30.694 130.273,32.24 131.087,34.051C132.015,35.82 132.626,37.82 133.703,39.512C134.14,40.313 134.733,41.017 135.446,41.585C136.159,42.153 136.979,42.573 137.857,42.82C139.471,43.205 142.009,42.82 143.011,41.512C142.856,37.127 141.24,33.204 139.395,29.205C138.596,27.244 137.123,25.635 135.241,24.667C133.24,23.549 131.125,22.646 128.934,21.974C122.242,20.436 111.319,20.744 107.938,28.05C106.805,31.164 106.156,34.433 106.015,37.743C107.316,34.683 109.381,32.008 112.012,29.974L112.012,29.974Z" fill="#000000"/>
<path d="M117.549,46.204C116.242,44.743 113.857,42.82 111.857,43.05C109.857,43.281 108.088,44.434 107.396,47.358C107.396,47.358 108.857,48.512 112.241,48.204C114.168,48.071 116.013,47.376 117.549,46.204L117.549,46.204ZM132.779,44.665C131.472,43.205 129.087,41.281 127.087,41.512C125.087,41.743 123.318,42.896 122.625,45.819C122.625,45.819 124.087,46.974 127.472,46.665C129.399,46.532 131.244,45.837 132.779,44.665L132.779,44.665Z" fill="#FFFFFF"/>
<path d="M112.472,43.05L111.857,43.05C109.857,43.282 108.088,44.434 107.396,47.357C107.396,47.357 108.857,48.512 112.241,48.204C112.838,48.145 113.43,48.042 114.011,47.896C113.303,46.349 112.786,44.722 112.472,43.05L112.472,43.05ZM127.779,41.512L127.01,41.512C125.01,41.744 123.241,42.896 122.549,45.819C122.549,45.819 124.01,46.973 127.395,46.665C127.993,46.613 128.585,46.511 129.164,46.358C128.481,44.814 128.015,43.183 127.779,41.512Z" fill="#000000"/>
<path d="M119.164,89.202C110.183,87.876 101.02,88.532 92.32,91.126C90.924,90.813 89.512,90.581 88.089,90.43C87.005,87.549 85.328,84.928 83.166,82.738C82.702,82.274 82.397,81.892 81.935,81.507C78.705,70.046 73.705,59.119 68.629,48.354C69.115,47.079 69.907,45.943 70.936,45.047C73.429,45.78 75.675,47.176 77.437,49.086C79.198,50.996 80.407,53.349 80.935,55.893C83.754,52.021 87.746,49.161 92.32,47.739C96.781,46.201 101.55,45.816 106.32,45.354C108.941,46.542 111.064,48.611 112.319,51.201C118.011,62.665 117.392,76.587 119.164,89.202L119.164,89.202Z" fill="#FFFFFF"/>
<path d="M128.703,56.127C127.94,57.445 126.92,58.596 125.703,59.511C125.137,59.956 124.48,60.272 123.78,60.439C123.055,60.656 122.287,60.683 121.549,60.515C121.157,60.375 120.793,60.167 120.473,59.901C119.979,59.51 119.584,59.01 119.318,58.439C122.338,57.282 125.491,56.505 128.703,56.127L128.703,56.127Z" fill="#DD4040"/>
<path d="M120.549,55.665C119.164,55.819 117.55,56.204 116.934,57.049C116.55,57.513 117.088,58.511 117.862,58.742C118.216,58.809 118.577,58.835 118.938,58.819C121.113,58.535 123.252,58.018 125.318,57.28C126.396,56.973 128.856,56.28 129.241,55.742C126.856,56.28 123.242,55.435 120.549,55.665Z" fill="#000000"/>
<path d="M92.858,99.202C102.473,92.822 111.627,90.048 122.786,92.971C119.401,76.203 117.479,66.281 113.787,50.897C102.556,46.205 87.095,52.742 81.865,58.511C80.705,58.358 79.403,58.047 78.249,57.896C77.679,56.268 76.819,54.756 75.711,53.435C74.585,51.912 73.266,50.541 71.788,49.357C70.294,48.175 68.461,47.502 66.557,47.435C72.147,59.108 76.602,71.292 79.859,83.818C83.013,84.895 84.782,87.895 86.166,90.894C87.257,93.115 88.059,95.468 88.551,97.893C89.961,98.41 91.399,98.847 92.858,99.202Z" fill="#FFD340"/>
<path d="M85.704,74.742C85.161,72.943 84.699,71.121 84.32,69.28C84.013,67.895 83.624,66.511 83.32,65.126C82.704,65.126 82.16,65.05 81.551,65.05C81.935,66.357 82.32,67.665 82.628,68.895C83.092,70.819 83.627,72.664 84.166,74.587C84.63,76.356 85.094,78.203 85.627,79.972C86.131,81.426 86.519,82.918 86.787,84.433C87.349,84.37 87.914,84.344 88.48,84.357C88.089,82.895 86.166,76.434 85.704,74.742L85.704,74.742ZM107.472,56.511C104.114,55.578 100.584,55.447 97.166,56.127C95.11,56.592 93.155,57.426 91.396,58.589C90.107,59.302 88.918,60.181 87.858,61.203C90.165,67.434 91.627,73.973 93.396,80.356C96.177,78.043 99.473,76.433 103.008,75.664C106.285,74.909 109.646,74.573 113.008,74.664C111.088,68.664 109.165,62.588 107.472,56.511L107.472,56.511Z" fill="#008C6E"/>
<path d="M87.396,91.049C86.32,85.279 78.321,57.818 78.243,57.818C77.673,56.19 76.813,54.679 75.705,53.357C74.579,51.834 73.26,50.464 71.782,49.281C70.288,48.098 68.455,47.424 66.551,47.358C72.143,59.031 76.6,71.215 79.859,83.741C83.013,84.818 84.782,87.817 86.166,90.817C87.196,92.921 87.971,95.141 88.474,97.429C88.089,95.356 87.782,93.202 87.396,91.049L87.396,91.049Z" fill="#FDB849"/>
<path d="M144.625,66.512C144.24,64.434 143.779,62.434 143.394,60.364C141.753,62.592 139.655,64.444 137.241,65.797C134.827,67.15 132.152,67.972 129.395,68.209C129.347,69.6 129.219,70.987 129.01,72.363C129.284,72.907 129.7,73.366 130.215,73.692C130.731,74.017 131.324,74.196 131.933,74.209C133.168,74.175 134.379,73.857 135.471,73.281C138.933,71.819 141.702,68.972 144.625,66.512L144.625,66.512Z" fill="#FF465A"/>
<path d="M131.776,40.282C131.265,39.802 130.657,39.438 129.994,39.212C129.331,38.987 128.628,38.905 127.93,38.973C126.551,39.127 125.164,39.205 123.776,39.205C123.076,39.204 122.389,39.01 121.791,38.644C121.194,38.277 120.71,37.753 120.392,37.129C121.931,37.052 123.469,36.514 125.007,36.433C126.424,36.261 127.861,36.366 129.238,36.74C129.946,37.039 130.559,37.528 131.007,38.153C131.454,38.778 131.721,39.515 131.776,40.282L131.776,40.282ZM115.857,37.44C115.661,38.044 115.32,38.591 114.864,39.034C114.408,39.476 113.851,39.801 113.241,39.979C112.151,40.209 111.046,40.364 109.934,40.443C109.339,40.511 108.768,40.713 108.262,41.032C107.756,41.352 107.328,41.782 107.011,42.29C106.934,41.609 107.043,40.92 107.328,40.296C107.613,39.673 108.062,39.139 108.627,38.752C109.661,38.094 110.863,37.747 112.088,37.752C113.241,37.672 114.781,38.127 115.857,37.44Z" fill="#000000"/>
<path d="M120.088,51.127C120.384,48.749 119.955,46.336 118.857,44.206C119.059,45.479 118.907,46.784 118.419,47.977C117.931,49.171 117.125,50.207 116.088,50.974C117.379,51.408 118.767,51.461 120.088,51.127L120.088,51.127Z" fill="#DD4040"/>
<path d="M144.549,41.434C143.743,41.478 142.956,41.692 142.24,42.064C141.524,42.435 140.895,42.954 140.395,43.587C139.858,44.444 139.394,45.345 139.01,46.28C138.746,46.746 138.393,47.157 137.97,47.487C137.548,47.817 137.065,48.06 136.548,48.203C134.703,48.435 133.626,46.511 132.857,44.818C130.472,39.819 129.472,34.126 126.245,29.506C125.679,28.541 124.815,27.785 123.783,27.353C123.268,27.153 122.697,27.144 122.175,27.327C121.653,27.511 121.214,27.874 120.937,28.353C121.001,27.983 121.137,27.63 121.338,27.313C121.54,26.997 121.802,26.723 122.109,26.509C122.417,26.294 122.764,26.142 123.131,26.063C123.497,25.983 123.876,25.977 124.245,26.045C124.985,26.21 125.685,26.519 126.305,26.955C126.925,27.39 127.454,27.944 127.86,28.584C131.168,32.968 131.475,38.814 133.937,43.737C134.321,44.583 134.865,45.89 135.86,45.737C137.322,45.505 138.091,43.968 139.013,42.968C140.395,41.512 142.625,41.281 144.549,41.434L144.549,41.434Z" fill="#000000"/>
<path d="M142.932,39.435C143.34,39.059 143.835,38.791 144.373,38.657C144.911,38.522 145.474,38.525 146.01,38.666C146.567,38.931 147.04,39.344 147.379,39.859C147.718,40.374 147.909,40.973 147.932,41.589C148.317,44.281 147.163,46.974 145.701,49.281C145.216,50.123 144.592,50.877 143.856,51.512C143.633,51.733 143.369,51.909 143.079,52.028C142.789,52.148 142.477,52.209 142.163,52.208C141.163,52.131 140.625,51.053 140.318,50.13C139.471,46.588 140.012,41.743 142.932,39.435L142.932,39.435Z" fill="#F7846C"/>
<path d="M145.78,46.204C144.164,46.9 142.933,48.743 141.702,49.973C141.957,48.121 142.369,46.294 142.933,44.512C143.549,42.743 144.087,41.127 145.702,40.512C144.949,41.426 144.517,42.56 144.471,43.743C144.318,44.747 144.164,46.588 145.78,46.204L145.78,46.204Z" fill="#DD4040"/>
<path d="M103.78,167.276C100.906,169.371 97.535,170.679 94,171.07C90.466,171.461 86.89,170.923 83.628,169.507C82.669,167.567 81.846,165.562 81.166,163.507C85.013,165.046 96.935,164.738 101.78,161.508C102.166,163.43 103.165,165.2 103.78,167.276L103.78,167.276Z" fill="#FFFFFF"/>
<path d="M161.778,129.278C162.616,138.277 160.854,147.327 156.702,155.354C154.394,160.046 151.241,164.584 146.625,166.891C143.01,168.52 139.041,169.208 135.088,168.891C132.582,168.952 130.099,168.397 127.856,167.276C125.703,166.045 123.395,164.122 123.473,161.584C123.962,163.91 124.065,166.301 123.78,168.66C118.066,171.125 111.759,171.873 105.627,170.813C104.78,170.66 102.935,165.737 102.55,164.89C101.473,162.737 100.55,160.506 99.628,158.352C97.704,153.814 95.935,149.199 94.165,144.507C90.627,135.2 86.625,125.892 84.704,116.124C82.708,106.048 82.244,90.51 94.089,86.276C100.55,83.968 107.473,87.661 112.165,92.737C121.704,103.045 126.703,111.506 134.01,125.197C143.164,125.739 154.396,125.509 161.778,129.278Z" fill="#FF465A"/>
<path d="M145.625,161.122C142.659,161.122 139.744,160.354 137.164,158.892C134.971,157.531 133.043,155.785 131.472,153.738C127.779,149.2 125.324,143.815 123.164,138.354C121.087,133.201 118.626,129.431 116.857,124.202C114.626,117.741 112.011,110.895 111.55,101.742C111.506,103.139 111.22,104.519 110.703,105.818C109.934,107.125 109.165,107.203 107.858,105.664C107.472,105.2 104.934,100.28 104.473,99.433C104.937,100.895 105.169,102.433 105.473,103.895C105.794,104.993 105.924,106.138 105.858,107.28C105.549,109.203 102.858,107.512 101.78,107.125C103.089,108.356 104.549,110.049 105.473,111.125C106.635,112.495 107.713,113.934 108.703,115.433C111.061,119.367 113.044,123.513 114.626,127.817C116.462,132.491 118.104,137.239 119.549,142.047C122.087,150.663 124.087,165.277 123.934,163.507C124.84,165.17 126.237,166.512 127.934,167.353C130.178,168.466 132.659,169.02 135.164,168.969C139.116,169.278 143.083,168.59 146.701,166.969C150.022,165.149 152.788,162.463 154.705,159.197C151.846,160.466 148.753,161.122 145.625,161.122L145.625,161.122Z" fill="#D70A32"/>
<path d="M125.396,168.738C124.117,169.84 122.584,170.606 120.935,170.969C115.704,172.507 110.243,173.661 105.09,171.897C103.72,170.028 102.607,167.984 101.782,165.819C110.012,165.665 117.243,164.743 124.089,161.512C124.468,163.661 124.932,166.738 125.396,168.738L125.396,168.738Z" fill="#FFFFFF"/>
<path d="M166.547,142.815C159.622,146.54 153.297,151.285 147.784,156.892C142.243,162.529 138.358,169.58 136.553,177.275C144.476,177.275 152.938,175.661 158.63,170.199C162.236,166.643 164.814,162.178 166.091,157.277C167.471,152.354 166.547,147.815 166.547,142.815Z" fill="#14D29B"/>
<path d="M128.856,85.434C126.566,82.802 124.721,79.814 123.395,76.587C122.289,73.415 120.184,70.688 117.395,68.815C116.522,68.188 115.699,67.493 114.934,66.738C112.55,64.816 111.241,59.585 107.858,60.893C109.472,63.507 110.934,66.277 112.55,68.897C111.178,67.705 109.916,66.392 108.78,64.973C107.55,63.666 106.319,61.821 104.242,62.59C104.706,63.359 105.089,64.359 105.549,65.128C105.461,64.983 105.345,64.858 105.207,64.76C105.069,64.662 104.912,64.593 104.747,64.557C104.582,64.521 104.411,64.519 104.245,64.551C104.078,64.583 103.92,64.648 103.78,64.743C104.539,67.332 105.942,69.686 107.858,71.587C106.549,70.356 104.473,69.049 102.935,70.427C105.858,72.273 107.78,74.811 109.934,77.196C111.494,79.027 113.277,80.655 115.242,82.042C116.192,82.646 117.197,83.161 118.242,83.58C119.242,84.119 120.318,84.508 121.242,85.119C121.914,85.677 122.532,86.298 123.087,86.972C124.015,88.048 124.856,89.202 125.703,90.357C127.248,89.09 128.351,87.366 128.856,85.434L128.856,85.434Z" fill="#F7846C"/>
<path d="M108.934,72.895C108.799,72.7 108.643,72.519 108.47,72.357C108.162,72.049 108.162,71.973 107.855,71.661C107.089,70.835 106.1,70.248 105.008,69.969C105.556,70.363 106.07,70.8 106.547,71.277C107.283,72.155 108.202,72.864 109.239,73.353C109.162,73.277 109.162,73.2 109.086,73.121C109.084,73.102 109.076,73.084 109.062,73.071C109.048,73.059 109.029,73.051 109.01,73.052C109.003,72.992 108.976,72.937 108.934,72.895L108.934,72.895ZM107.934,68.742C107.006,67.511 105.472,65.05 105.472,65.126C105.277,64.873 105.009,64.685 104.703,64.588C105.067,65.506 105.478,66.405 105.934,67.28C106.253,67.975 106.668,68.622 107.165,69.203C107.755,69.801 108.462,70.273 109.241,70.588L109.705,70.82C109.165,70.203 108.55,69.511 107.934,68.742L107.934,68.742Z" fill="#DD4040"/>
<path d="M128.472,82.51C133.857,87.048 137.857,90.74 141.702,97.74C141.395,89.968 143.164,82.203 145.241,74.664C146.318,70.819 147.548,66.892 150.01,63.819C152.472,60.746 156.548,58.511 160.394,59.28C163.856,59.976 166.542,62.896 167.856,66.203C168.982,69.568 169.427,73.125 169.163,76.664C168.778,90.12 165.778,103.279 161.855,116.125C160.624,120.047 159.162,124.278 155.701,126.509C152.316,128.662 147.778,128.355 144.162,126.509C140.64,124.498 137.699,121.61 135.625,118.125C128.855,107.893 127.933,98.663 120.777,88.048C123.164,85.586 125.164,83.587 128.472,82.51L128.472,82.51Z" fill="#9778FF"/>
<path d="M124.011,92.356C125.472,89.357 128.472,87.433 131.472,86.208C131.768,86.071 132.08,85.968 132.4,85.901C131.169,84.741 129.861,83.67 128.477,82.516C125.17,83.593 123.169,85.592 120.937,88.208C122.014,89.824 122.938,91.439 123.783,92.977C123.856,92.74 123.934,92.587 124.011,92.356L124.011,92.356Z" fill="#FF465A"/>
<path d="M143.318,101.048C144.014,102.663 144.625,104.355 145.241,106.048C145.779,107.433 146.317,108.893 146.856,110.278C147.223,109.899 147.61,109.54 148.016,109.202C146.552,104.6 144.455,100.225 141.785,96.202L141.785,97.741C141.625,97.587 142.779,99.818 143.318,101.048L143.318,101.048Z" fill="#000000"/>
<path d="M72.628,64.816C73.138,63.272 73.728,61.757 74.397,60.276C74.741,60.5 75.021,60.809 75.21,61.173C75.399,61.537 75.49,61.944 75.474,62.354C75.325,63.574 75.093,64.781 74.778,65.969C75.706,64.816 76.547,63.661 77.394,62.507C77.786,62.784 78.075,63.185 78.215,63.645C78.354,64.105 78.336,64.598 78.163,65.046C78.336,65.197 78.469,65.388 78.55,65.603C78.631,65.818 78.657,66.05 78.627,66.277C78.617,66.739 78.484,67.191 78.242,67.585C77.847,68.426 77.329,69.204 76.703,69.892C77.631,69.277 78.396,68.815 79.319,68.199C79.435,68.69 79.409,69.203 79.244,69.68C79.08,70.156 78.784,70.576 78.391,70.892C77.775,71.508 77.231,72.199 76.622,72.892C77.086,74.353 77.391,75.507 77.853,77.2C77.315,77.584 76.775,77.276 76.237,76.891C75.726,76.499 75.307,76.001 75.006,75.431C74.235,74.529 73.8,73.387 73.776,72.2C73.776,71.968 73.853,71.736 73.776,71.584C73.699,71.277 73.392,71.046 73.312,70.739C73.304,70.375 73.252,70.013 73.158,69.661C73.004,69.429 72.773,69.277 72.694,68.965C72.616,68.653 72.771,68.269 72.694,67.888C72.599,67.593 72.469,67.309 72.309,67.043C72.182,66.285 72.293,65.507 72.628,64.816L72.628,64.816Z" fill="#DD4040"/>
</svg>
