<svg width="68" height="68" viewBox="0 0 68 68" fill="none" xmlns="http://www.w3.org/2000/svg" xmlns:xlink="http://www.w3.org/1999/xlink">
<path d="M36.704,2.252C36.13,2.762 31.668,11.618 31.668,11.618L28.347,25.011L41.267,23.827C41.267,23.827 52.015,3.841 52.232,3.379C52.62,2.539 52.827,2.194 51.345,2.194C49.863,2.189 37.241,1.774 36.704,2.252L36.704,2.252Z" fill="#176CC7"/>
<path d="M43.392,22.998C42.75,22.652 23.816,22.355 23.37,22.998C22.966,23.582 23.194,26.647 23.348,27.014C23.625,27.652 29.739,30.43 29.739,30.43L29.622,31.694C29.622,31.694 30.122,31.822 33.676,31.822C37.23,31.822 37.931,31.641 37.931,31.641L37.942,30.499C37.942,30.499 43.445,27.822 43.722,27.45C43.955,27.142 44.035,23.343 43.392,22.998ZM37.756,27.843C37.756,27.843 37.931,27.062 37.565,26.881C37.198,26.695 30.908,26.78 30.409,26.807C29.909,26.833 29.909,27.726 29.909,27.726L25.946,25.686L25.872,24.926L40.906,25.032L40.853,25.75L37.756,27.843L37.756,27.843Z" fill="#F79429"/>
<path d="M31.482,27.567C30.982,27.567 30.696,28.087 30.696,28.985C30.696,29.824 30.982,30.531 31.615,30.478C32.135,30.435 32.316,29.638 32.268,28.932C32.22,28.087 32.114,27.567 31.482,27.567L31.482,27.567Z" fill="#FDFFFF"/>
<path d="M15.571,48.923C15.571,61.652 27.104,66.948 34.76,66.72C43.679,66.454 53.274,59.686 52.482,47.542C51.739,36.146 42.144,30.919 33.761,30.977C24.018,31.052 15.571,37.804 15.571,48.923L15.571,48.923Z" fill="#F79429"/>
<path d="M34.356,64.796C34.223,64.796 34.085,64.796 33.952,64.791C29.968,64.658 26.031,62.98 23.152,60.191C20.071,57.205 18.381,53.168 18.403,48.827C18.45,38.229 27.715,33.315 34,33.315L34.053,33.315C42.569,33.352 49.56,39.971 49.757,48.944C49.842,52.939 48.567,56.913 45.358,60.068C42.362,63.001 38.027,64.796 34.356,64.796L34.356,64.796ZM33.989,35.078C28.353,35.078 20.018,39.69 19.996,48.827C19.98,55.659 25.272,62.682 34.085,62.98C37.443,63.086 41.23,61.843 44.019,59.101C46.92,56.249 48.222,52.53 48.163,48.971C48.036,41.252 41.724,35.11 34.064,35.078C34.048,35.068 34.005,35.078 33.989,35.078Z" fill="#D25116"/>
<path d="M30.86,32.656C30.494,32.151 26.738,32.295 22.695,35.774C18.679,39.233 18.078,43.058 18.801,43.26C19.624,43.488 20.628,39.791 24.098,36.683C27.285,33.841 31.588,33.66 30.86,32.656L30.86,32.656ZM47.005,46.559C45.725,46.739 47.053,50.575 44.083,54.867C41.507,58.592 38.585,59.941 38.925,60.759C39.382,61.853 44.062,59.128 46.229,54.687C48.19,50.665 47.956,46.421 47.005,46.559Z" fill="#FEFFFA"/>
<path d="M13.552,1.976C13.217,2.284 26.015,25.075 26.015,25.075C26.015,25.075 28.161,25.351 32.953,25.394C37.745,25.436 40.12,25.118 40.12,25.118C40.12,25.118 30.17,2.205 29.575,1.976C29.282,1.859 25.341,1.817 21.489,1.774C17.632,1.727 13.871,1.679 13.552,1.976L13.552,1.976Z" fill="#2E9DF4"/>
<path d="M39.817,44.471C39.201,39.132 32.985,38.686 30.409,40.736C27.901,42.734 28.14,45.517 29.899,45.842C31.285,46.097 31.647,44.997 32.05,44.492C32.964,43.361 34.42,43.254 35.371,44.163C36.449,45.199 35.785,47.674 34.165,47.775C32.959,47.85 32.348,47.786 32.194,47.993C31.976,48.285 32.008,50.586 32.231,50.841C32.486,51.133 33.506,50.952 34.383,50.984C35.589,51.032 36.869,52.817 36.024,54.156C35.148,55.542 32.815,54.921 31.976,54.081C30.866,52.971 29.755,53.608 29.384,54.044C28.799,54.735 28.178,56.307 30.334,57.837C32.486,59.367 39.015,59.659 40.333,54.921C41.48,50.782 38.803,49.082 38.803,49.082C38.803,49.082 40.168,47.515 39.817,44.471L39.817,44.471Z" fill="#D25116"/>
</svg>
