<svg width="24" height="36" viewBox="0 0 24 36" fill="none" xmlns="http://www.w3.org/2000/svg" xmlns:xlink="http://www.w3.org/1999/xlink">
<path d="M2.596,0.441C1.735,-0.251 0.476,-0.114 -0.216,0.747C-0.908,1.607 -0.772,2.866 0.089,3.559L2.596,0.441ZM21.237,18L22.49,19.558C22.962,19.179 23.237,18.606 23.237,18C23.237,17.394 22.962,16.821 22.49,16.442L21.237,18ZM0.089,32.441C-0.772,33.134 -0.908,34.393 -0.216,35.253C0.476,36.114 1.735,36.251 2.596,35.559L0.089,32.441ZM0.089,3.559L19.983,19.558L22.49,16.442L2.596,0.441L0.089,3.559ZM19.983,16.442L0.089,32.441L2.596,35.559L22.49,19.558L19.983,16.442Z" fill="#000000" fill-opacity="0.2"/>
</svg>
