<svg width="60" height="60" viewBox="0 0 60 60" fill="none" xmlns="http://www.w3.org/2000/svg" xmlns:xlink="http://www.w3.org/1999/xlink">
<path d="M35.14,58.282L24.066,58.282C23.372,58.282 22.699,58.055 22.159,57.64C21.618,57.224 21.242,56.644 21.094,55.997L19.856,50.52C18.204,49.828 16.637,48.963 15.186,47.941L9.597,49.642C8.935,49.843 8.222,49.823 7.574,49.583C6.927,49.344 6.384,48.9 6.037,48.325L0.488,39.165C0.145,38.59 0.016,37.92 0.123,37.266C0.229,36.612 0.565,36.011 1.075,35.563L5.411,31.784C5.213,30.072 5.213,28.345 5.411,26.633L1.075,22.862C0.564,22.414 0.228,21.813 0.121,21.158C0.015,20.503 0.144,19.833 0.488,19.258L6.025,10.092C6.372,9.517 6.914,9.073 7.562,8.833C8.209,8.594 8.923,8.573 9.585,8.775L15.173,10.475C15.916,9.952 16.688,9.464 17.486,9.022C18.255,8.609 19.046,8.234 19.856,7.9L21.097,2.429C21.245,1.781 21.62,1.201 22.16,0.785C22.7,0.369 23.372,0.142 24.066,0.141L35.14,0.141C35.834,0.142 36.507,0.369 37.047,0.785C37.587,1.201 37.962,1.781 38.11,2.429L39.363,7.903C41.013,8.598 42.578,9.463 44.033,10.481L49.625,8.781C50.286,8.58 50.999,8.601 51.646,8.84C52.293,9.08 52.834,9.523 53.181,10.097L58.718,19.263C59.424,20.446 59.181,21.944 58.131,22.865L53.796,26.644C53.993,28.356 53.993,30.084 53.796,31.796L58.131,35.575C59.181,36.499 59.424,37.993 58.718,39.177L53.181,48.342C52.834,48.917 52.292,49.361 51.644,49.601C50.997,49.84 50.283,49.861 49.622,49.659L44.033,47.959C42.582,48.98 41.017,49.844 39.366,50.534L38.11,55.997C37.961,56.644 37.586,57.223 37.046,57.639C36.506,58.054 35.834,58.281 35.14,58.282L35.14,58.282ZM29.591,17.583C26.364,17.583 23.268,18.808 20.986,20.989C18.704,23.17 17.422,26.127 17.422,29.211C17.422,32.295 18.704,35.253 20.986,37.434C23.268,39.614 26.364,40.839 29.591,40.839C32.819,40.839 35.914,39.614 38.196,37.434C40.478,35.253 41.76,32.295 41.76,29.211C41.76,26.127 40.478,23.17 38.196,20.989C35.914,18.808 32.819,17.583 29.591,17.583L29.591,17.583Z" fill="#000000" fill-opacity="0.5"/>
</svg>
