<svg width="94" height="118" viewBox="0 0 94 118" fill="none" xmlns="http://www.w3.org/2000/svg" xmlns:xlink="http://www.w3.org/1999/xlink">
<path d="M47,0C30.803,0 17.625,13.234 17.625,29.5L17.625,47.2L11.75,47.2C8.634,47.2 5.645,48.443 3.442,50.656C1.238,52.869 0,55.87 0,59L0,106.2C0,109.33 1.238,112.331 3.442,114.544C5.645,116.757 8.634,118 11.75,118L82.25,118C85.366,118 88.355,116.757 90.559,114.544C92.762,112.331 94,109.33 94,106.2L94,59C94,55.87 92.762,52.869 90.559,50.656C88.355,48.443 85.366,47.2 82.25,47.2L76.375,47.2L76.375,29.5C76.375,13.234 63.197,0 47,0ZM29.375,29.5C29.375,19.741 37.283,11.8 47,11.8C56.717,11.8 64.625,19.741 64.625,29.5L64.625,47.2L29.375,47.2L29.375,29.5ZM52.875,92.766L52.875,106.2L41.125,106.2L41.125,92.766C39.071,91.584 37.422,89.806 36.395,87.664C35.368,85.523 35.011,83.119 35.372,80.77C35.732,78.42 36.793,76.236 38.415,74.505C40.037,72.773 42.143,71.576 44.456,71.071C46.174,70.69 47.955,70.701 49.669,71.103C51.382,71.505 52.984,72.288 54.355,73.394C55.727,74.5 56.834,75.902 57.595,77.495C58.355,79.089 58.75,80.833 58.75,82.6C58.747,84.663 58.202,86.69 57.17,88.474C56.139,90.259 54.657,91.739 52.875,92.766L52.875,92.766Z" fill="#000000" fill-opacity="0.5"/>
</svg>
