<svg width="24" height="38" viewBox="0 0 24 38" fill="none" xmlns="http://www.w3.org/2000/svg" xmlns:xlink="http://www.w3.org/1999/xlink">
<path d="M3.288,0.898C2.443,0.187 1.182,0.295 0.47,1.14C-0.241,1.985 -0.133,3.247 0.712,3.958L3.288,0.898ZM21.895,19.18L23.183,20.71C23.634,20.33 23.895,19.77 23.895,19.18C23.895,18.59 23.634,18.03 23.183,17.65L21.895,19.18ZM0.712,34.402C-0.133,35.113 -0.241,36.375 0.47,37.22C1.182,38.065 2.443,38.173 3.288,37.462L0.712,34.402ZM0.712,3.958L20.606,20.71L23.183,17.65L3.288,0.898L0.712,3.958ZM20.606,17.65L0.712,34.402L3.288,37.462L23.183,20.71L20.606,17.65Z" fill="#000000" fill-opacity="0.2"/>
</svg>
