<svg width="60" height="60" viewBox="0 0 60 60" fill="none" xmlns="http://www.w3.org/2000/svg" xmlns:xlink="http://www.w3.org/1999/xlink">
<path d="M18.151,29.239C23.86,29.239 28.482,22.586 28.482,14.366C28.482,6.146 23.86,-0.507 18.151,-0.507C12.441,-0.507 7.82,6.146 7.82,14.366C7.82,22.586 12.441,29.239 18.151,29.239ZM25.235,33.489L24.469,33.489C22.55,34.817 20.42,35.614 18.151,35.614C15.881,35.614 13.76,34.817 11.832,33.489L11.066,33.489C5.2,33.489 0.44,40.341 0.44,48.787L0.44,52.612C0.44,56.131 2.423,58.986 4.868,58.986L31.433,58.986C33.878,58.986 35.861,56.131 35.861,52.612L35.861,48.787C35.861,40.341 31.101,33.489 25.235,33.489ZM44.716,29.239C49.605,29.239 53.571,23.529 53.571,16.491C53.571,9.453 49.605,3.742 44.716,3.742C39.827,3.742 35.861,9.453 35.861,16.491C35.861,23.529 39.827,29.239 44.716,29.239ZM49.144,33.489L48.793,33.489C47.511,34.126 46.155,34.551 44.716,34.551C43.277,34.551 41.921,34.126 40.639,33.489L40.288,33.489C38.407,33.489 36.673,34.272 35.151,35.534C37.401,39.027 38.813,43.661 38.813,48.787L38.813,53.887C38.813,54.179 38.766,54.458 38.757,54.736L55.047,54.736C57.491,54.736 59.475,51.881 59.475,48.362C59.475,40.142 54.853,33.489 49.144,33.489L49.144,33.489Z" fill="#000000" fill-opacity="0.5"/>
</svg>
