<svg width="60" height="60" viewBox="0 0 60 60" fill="none" xmlns="http://www.w3.org/2000/svg" xmlns:xlink="http://www.w3.org/1999/xlink">
<path d="M35.14,58.986L24.066,58.986C23.372,58.986 22.699,58.754 22.159,58.329C21.618,57.904 21.242,57.311 21.094,56.648L19.856,51.044C18.204,50.336 16.637,49.451 15.186,48.405L9.597,50.145C8.935,50.352 8.222,50.33 7.574,50.085C6.927,49.84 6.384,49.386 6.037,48.798L0.488,39.425C0.145,38.836 0.016,38.151 0.123,37.481C0.229,36.812 0.565,36.198 1.075,35.739L5.411,31.872C5.213,30.12 5.213,28.353 5.411,26.601L1.075,22.743C0.564,22.284 0.228,21.669 0.121,20.999C0.015,20.329 0.144,19.643 0.488,19.054L6.025,9.675C6.372,9.087 6.914,8.633 7.562,8.388C8.209,8.143 8.923,8.121 9.585,8.328L15.173,10.068C15.916,9.532 16.688,9.033 17.486,8.581C18.255,8.158 19.046,7.774 19.856,7.432L21.097,1.834C21.245,1.171 21.62,0.578 22.16,0.152C22.7,-0.274 23.372,-0.506 24.066,-0.507L35.14,-0.507C35.834,-0.506 36.507,-0.274 37.047,0.152C37.587,0.578 37.962,1.171 38.11,1.834L39.363,7.435C41.013,8.147 42.578,9.032 44.033,10.074L49.625,8.334C50.286,8.128 50.999,8.15 51.646,8.395C52.293,8.64 52.834,9.094 53.181,9.681L58.718,19.06C59.424,20.271 59.181,21.803 58.131,22.746L53.796,26.613C53.993,28.365 53.993,30.132 53.796,31.884L58.131,35.751C59.181,36.697 59.424,38.226 58.718,39.437L53.181,48.816C52.834,49.404 52.292,49.858 51.644,50.103C50.997,50.348 50.283,50.369 49.622,50.163L44.033,48.423C42.582,49.468 41.017,50.352 39.366,51.059L38.11,56.648C37.961,57.31 37.586,57.903 37.046,58.328C36.506,58.753 35.834,58.985 35.14,58.986L35.14,58.986ZM29.591,17.341C26.364,17.341 23.268,18.594 20.986,20.826C18.704,23.057 17.422,26.084 17.422,29.239C17.422,32.395 18.704,35.422 20.986,37.653C23.268,39.884 26.364,41.138 29.591,41.138C32.819,41.138 35.914,39.884 38.196,37.653C40.478,35.422 41.76,32.395 41.76,29.239C41.76,26.084 40.478,23.057 38.196,20.826C35.914,18.594 32.819,17.341 29.591,17.341L29.591,17.341Z" fill="#000000" fill-opacity="0.5"/>
</svg>
