<svg width="60" height="60" viewBox="0 0 60 60" fill="none" xmlns="http://www.w3.org/2000/svg" xmlns:xlink="http://www.w3.org/1999/xlink">
<path d="M34.87,58.986L23.796,58.986C23.102,58.986 22.429,58.754 21.888,58.329C21.347,57.904 20.972,57.311 20.823,56.648L19.585,51.044C17.933,50.336 16.367,49.451 14.915,48.405L9.326,50.145C8.665,50.352 7.951,50.33 7.304,50.085C6.656,49.84 6.114,49.386 5.767,48.798L0.218,39.425C-0.126,38.836 -0.255,38.151 -0.148,37.481C-0.041,36.812 0.295,36.198 0.805,35.739L5.14,31.872C4.943,30.12 4.943,28.353 5.14,26.601L0.805,22.743C0.294,22.284 -0.042,21.669 -0.149,20.999C-0.256,20.329 -0.126,19.643 0.218,19.054L5.755,9.675C6.102,9.087 6.644,8.633 7.291,8.388C7.939,8.143 8.653,8.121 9.314,8.328L14.903,10.068C15.645,9.532 16.418,9.033 17.215,8.58C17.985,8.158 18.776,7.774 19.585,7.432L20.826,1.834C20.974,1.171 21.349,0.578 21.889,0.152C22.429,-0.274 23.102,-0.506 23.796,-0.507L34.87,-0.507C35.563,-0.506 36.236,-0.274 36.776,0.152C37.316,0.578 37.691,1.171 37.839,1.834L39.092,7.435C40.742,8.147 42.308,9.032 43.762,10.074L49.354,8.334C50.015,8.128 50.728,8.15 51.375,8.395C52.022,8.64 52.564,9.094 52.911,9.681L58.448,19.06C59.153,20.271 58.91,21.803 57.86,22.746L53.525,26.613C53.722,28.365 53.722,30.132 53.525,31.884L57.86,35.751C58.91,36.697 59.153,38.226 58.448,39.437L52.911,48.816C52.564,49.404 52.021,49.858 51.374,50.103C50.726,50.348 50.013,50.369 49.351,50.163L43.762,48.423C42.312,49.468 40.746,50.352 39.095,51.059L37.839,56.648C37.691,57.31 37.315,57.903 36.775,58.328C36.235,58.753 35.563,58.985 34.87,58.986L34.87,58.986ZM29.32,17.341C26.093,17.341 22.998,18.594 20.715,20.826C18.433,23.057 17.151,26.084 17.151,29.239C17.151,32.395 18.433,35.422 20.715,37.653C22.998,39.884 26.093,41.138 29.32,41.138C32.548,41.138 35.643,39.884 37.925,37.653C40.208,35.422 41.49,32.395 41.49,29.239C41.49,26.084 40.208,23.057 37.925,20.826C35.643,18.594 32.548,17.341 29.32,17.341L29.32,17.341Z" fill="#000000" fill-opacity="0.5"/>
</svg>
