<svg width="54" height="60" viewBox="0 0 54 60" fill="none" xmlns="http://www.w3.org/2000/svg" xmlns:xlink="http://www.w3.org/1999/xlink">
<path d="M40.317,1.785C40.317,1.332 40.2,0.889 39.979,0.512C39.759,0.135 39.445,-0.159 39.077,-0.333C38.71,-0.506 38.305,-0.551 37.915,-0.463C37.525,-0.374 37.167,-0.156 36.886,0.165L28.852,9.318C28.666,9.531 28.518,9.783 28.417,10.061C28.317,10.339 28.265,10.637 28.266,10.938L28.266,23.719L25.289,27.106C24.693,26.926 24.07,26.904 23.466,27.042C22.862,27.18 22.293,27.474 21.805,27.901C21.316,28.329 20.92,28.878 20.648,29.508C20.375,30.137 20.232,30.829 20.232,31.531C20.232,32.182 20.354,32.826 20.59,33.419C20.826,34.012 21.171,34.541 21.601,34.97C22.031,35.4 22.536,35.72 23.083,35.909C23.63,36.097 24.206,36.151 24.773,36.066C25.34,35.981 25.884,35.759 26.37,35.415C26.855,35.071 27.271,34.613 27.588,34.072C27.906,33.53 28.119,32.918 28.212,32.275C28.305,31.633 28.277,30.975 28.129,30.346L31.106,26.955L42.325,26.955C42.589,26.955 42.85,26.897 43.094,26.782C43.338,26.667 43.56,26.499 43.747,26.287L51.781,17.134C52.063,16.814 52.255,16.406 52.332,15.962C52.41,15.517 52.37,15.057 52.218,14.638C52.066,14.219 51.808,13.862 51.477,13.61C51.146,13.359 50.757,13.225 50.359,13.226L40.317,13.226L40.317,1.785ZM48.126,27.769C48.817,33.468 47.92,39.269 45.561,44.355C43.202,49.442 39.5,53.555 34.979,56.116C30.457,58.676 25.344,59.554 20.361,58.626C15.378,57.698 10.776,55.01 7.206,50.942C3.636,46.874 1.278,41.631 0.464,35.954C-0.35,30.277 0.421,24.452 2.67,19.301C4.918,14.151 8.53,9.935 12.995,7.248C17.46,4.562 22.553,3.541 27.555,4.33L26.016,6.082C25.456,6.72 25.011,7.477 24.708,8.31C24.405,9.143 24.249,10.036 24.249,10.938C20.673,10.938 17.178,12.146 14.206,14.408C11.233,16.671 8.916,19.887 7.548,23.65C6.18,27.413 5.822,31.554 6.519,35.549C7.217,39.543 8.938,43.213 11.467,46.093C13.995,48.973 17.216,50.934 20.722,51.729C24.228,52.523 27.863,52.116 31.166,50.557C34.469,48.998 37.292,46.359 39.279,42.972C41.265,39.586 42.325,35.604 42.325,31.531C43.923,31.53 45.454,30.805 46.583,29.518L48.126,27.769ZM24.249,15.514C21.468,15.514 18.75,16.453 16.438,18.213C14.125,19.973 12.323,22.475 11.259,25.402C10.195,28.328 9.917,31.549 10.459,34.656C11.002,37.763 12.341,40.617 14.307,42.857C16.273,45.097 18.778,46.622 21.506,47.24C24.233,47.858 27.06,47.541 29.629,46.329C32.198,45.117 34.394,43.064 35.939,40.43C37.484,37.796 38.308,34.699 38.308,31.531L32.769,31.531L32.266,32.103C32.17,33.861 31.63,35.55 30.712,36.967C29.793,38.385 28.536,39.47 27.089,40.093C25.643,40.716 24.07,40.85 22.558,40.479C21.046,40.109 19.661,39.249 18.567,38.003C17.474,36.758 16.719,35.179 16.394,33.457C16.069,31.735 16.186,29.943 16.733,28.295C17.28,26.647 18.233,25.214 19.477,24.168C20.721,23.122 22.203,22.507 23.746,22.397L24.249,21.825L24.249,15.514Z" fill="#000000" fill-opacity="0.5"/>
</svg>
