<svg width="60" height="60" viewBox="0 0 60 60" fill="none" xmlns="http://www.w3.org/2000/svg" xmlns:xlink="http://www.w3.org/1999/xlink">
<path d="M18.421,29.239C24.131,29.239 28.752,22.586 28.752,14.366C28.752,6.146 24.131,-0.507 18.421,-0.507C12.712,-0.507 8.09,6.146 8.09,14.366C8.09,22.586 12.712,29.239 18.421,29.239ZM25.505,33.489L24.74,33.489C22.821,34.817 20.69,35.614 18.421,35.614C16.152,35.614 14.031,34.817 12.103,33.489L11.337,33.489C5.471,33.489 0.711,40.341 0.711,48.787L0.711,52.612C0.711,56.131 2.694,58.986 5.139,58.986L31.704,58.986C34.149,58.986 36.132,56.131 36.132,52.612L36.132,48.787C36.132,40.341 31.372,33.489 25.505,33.489ZM44.987,29.239C49.876,29.239 53.842,23.529 53.842,16.491C53.842,9.453 49.876,3.742 44.987,3.742C40.098,3.742 36.132,9.453 36.132,16.491C36.132,23.529 40.098,29.239 44.987,29.239ZM49.414,33.489L49.064,33.489C47.782,34.126 46.426,34.551 44.987,34.551C43.548,34.551 42.192,34.126 40.91,33.489L40.559,33.489C38.678,33.489 36.943,34.272 35.421,35.534C37.672,39.027 39.083,43.661 39.083,48.787L39.083,53.887C39.083,54.179 39.037,54.458 39.028,54.736L55.318,54.736C57.762,54.736 59.745,51.881 59.745,48.362C59.745,40.142 55.124,33.489 49.414,33.489L49.414,33.489Z" fill="#AB70DF"/>
</svg>
