<svg width="24" height="38" viewBox="0 0 24 38" fill="none" xmlns="http://www.w3.org/2000/svg" xmlns:xlink="http://www.w3.org/1999/xlink">
<path d="M3.288,-0.298C2.443,-1.009 1.182,-0.901 0.47,-0.056C-0.241,0.789 -0.133,2.05 0.712,2.762L3.288,-0.298ZM21.895,17.984L23.183,19.514C23.634,19.134 23.895,18.574 23.895,17.984C23.895,17.394 23.634,16.834 23.183,16.454L21.895,17.984ZM0.712,33.205C-0.133,33.917 -0.241,35.179 0.47,36.024C1.182,36.869 2.443,36.977 3.288,36.265L0.712,33.205ZM0.712,2.762L20.606,19.514L23.183,16.454L3.288,-0.298L0.712,2.762ZM20.606,16.454L0.712,33.205L3.288,36.265L23.183,19.514L20.606,16.454Z" fill="#000000" fill-opacity="0.2"/>
</svg>
