<svg width="70" height="60" viewBox="0 0 70 60" fill="none" xmlns="http://www.w3.org/2000/svg" xmlns:xlink="http://www.w3.org/1999/xlink">
<path d="M33.682,15.224L11.154,34.933L11.154,56.205C11.154,56.756 11.36,57.284 11.727,57.673C12.093,58.063 12.59,58.282 13.109,58.282L26.802,58.244C27.318,58.241 27.813,58.021 28.178,57.632C28.542,57.243 28.747,56.716 28.747,56.167L28.747,43.745C28.747,43.194 28.953,42.666 29.32,42.276C29.686,41.887 30.183,41.668 30.702,41.668L38.522,41.668C39.041,41.668 39.538,41.887 39.905,42.276C40.271,42.666 40.477,43.194 40.477,43.745L40.477,56.158C40.476,56.431 40.526,56.702 40.624,56.955C40.722,57.208 40.866,57.437 41.048,57.631C41.229,57.824 41.445,57.978 41.683,58.083C41.92,58.187 42.175,58.241 42.432,58.241L56.12,58.282C56.639,58.282 57.136,58.063 57.503,57.673C57.869,57.284 58.075,56.756 58.075,56.205L58.075,34.919L35.552,15.224C35.287,14.997 34.957,14.874 34.617,14.874C34.277,14.874 33.947,14.997 33.682,15.224ZM69.268,28.62L59.053,19.676L59.053,1.698C59.053,1.285 58.898,0.889 58.623,0.597C58.348,0.305 57.975,0.141 57.586,0.141L50.744,0.141C50.355,0.141 49.982,0.305 49.707,0.597C49.432,0.889 49.277,1.285 49.277,1.698L49.277,11.123L38.338,1.562C37.288,0.644 35.97,0.143 34.611,0.143C33.251,0.143 31.934,0.644 30.884,1.562L-0.046,28.62C-0.195,28.75 -0.317,28.911 -0.408,29.091C-0.498,29.272 -0.554,29.47 -0.572,29.674C-0.59,29.877 -0.57,30.083 -0.513,30.279C-0.457,30.474 -0.364,30.656 -0.242,30.814L2.874,34.837C2.997,34.995 3.147,35.126 3.318,35.223C3.488,35.319 3.674,35.378 3.866,35.398C4.058,35.418 4.252,35.397 4.436,35.337C4.62,35.277 4.792,35.179 4.94,35.049L33.682,9.903C33.947,9.676 34.277,9.552 34.617,9.552C34.957,9.552 35.287,9.676 35.552,9.903L64.295,35.049C64.443,35.179 64.614,35.277 64.798,35.337C64.982,35.398 65.176,35.419 65.368,35.399C65.559,35.38 65.746,35.321 65.916,35.225C66.086,35.129 66.237,34.999 66.36,34.841L69.476,30.817C69.598,30.659 69.69,30.476 69.746,30.28C69.802,30.083 69.821,29.877 69.802,29.673C69.782,29.469 69.725,29.271 69.634,29.09C69.542,28.909 69.418,28.749 69.268,28.62Z" fill="#41AC78"/>
</svg>
