<svg width="64" height="58" viewBox="0 0 64 58" fill="none" xmlns="http://www.w3.org/2000/svg" xmlns:xlink="http://www.w3.org/1999/xlink">
<path d="M62.004,8.185C59.324,2.659 51.602,-1.862 42.621,0.77C38.329,2.015 34.585,4.686 32,8.346C29.414,4.686 25.67,2.015 21.378,0.77C12.377,-1.822 4.676,2.659 1.995,8.185C-1.765,15.921 -0.205,24.621 6.636,34.045C11.997,41.42 19.658,48.895 30.779,57.575C31.131,57.85 31.564,58 32.01,58C32.455,58 32.888,57.85 33.24,57.575C44.341,48.915 52.023,41.5 57.383,34.045C64.204,24.621 65.765,15.921 62.004,8.185L62.004,8.185Z" fill="#DC3F00"/>
</svg>
