<svg width="30" height="30" viewBox="0 0 30 30" fill="none" xmlns="http://www.w3.org/2000/svg" xmlns:xlink="http://www.w3.org/1999/xlink">
<path d="M15,30C6.715,30 0,23.285 0,15C0,6.715 6.715,0 15,0C23.285,0 30,6.715 30,15C30,23.285 23.285,30 15,30ZM13.594,15C13.594,15.469 13.828,15.908 14.221,16.119L19.846,19.869C20.49,20.35 21.363,20.174 21.744,19.529C22.225,18.885 22.049,18.012 21.404,17.578L16.406,14.25L16.406,7.031C16.406,6.252 15.779,5.625 14.947,5.625C14.221,5.625 13.541,6.252 13.541,7.031L13.594,15Z" fill="#000000" fill-opacity="0.5"/>
</svg>
