<svg width="60" height="60" viewBox="0 0 60 60" fill="none" xmlns="http://www.w3.org/2000/svg" xmlns:xlink="http://www.w3.org/1999/xlink">
<path d="M18.421,29.211C24.131,29.211 28.752,22.709 28.752,14.676C28.752,6.643 24.131,0.141 18.421,0.141C12.711,0.141 8.09,6.643 8.09,14.676C8.09,22.709 12.711,29.211 18.421,29.211ZM25.505,33.364L24.74,33.364C22.821,34.662 20.69,35.441 18.421,35.441C16.152,35.441 14.031,34.662 12.103,33.364L11.337,33.364C5.471,33.364 0.711,40.061 0.711,48.315L0.711,52.052C0.711,55.491 2.694,58.282 5.138,58.282L31.704,58.282C34.148,58.282 36.131,55.491 36.131,52.052L36.131,48.315C36.131,40.061 31.372,33.364 25.505,33.364ZM44.987,29.211C49.875,29.211 53.842,23.631 53.842,16.753C53.842,9.874 49.875,4.294 44.987,4.294C40.098,4.294 36.131,9.874 36.131,16.753C36.131,23.631 40.098,29.211 44.987,29.211ZM49.414,33.364L49.064,33.364C47.782,33.987 46.426,34.402 44.987,34.402C43.548,34.402 42.192,33.987 40.91,33.364L40.559,33.364C38.677,33.364 36.943,34.13 35.421,35.363C37.672,38.776 39.083,43.305 39.083,48.315L39.083,53.298C39.083,53.584 39.037,53.856 39.028,54.129L55.318,54.129C57.762,54.129 59.745,51.338 59.745,47.899C59.745,39.866 55.124,33.364 49.414,33.364L49.414,33.364Z" fill="#000000" fill-opacity="0.5"/>
</svg>
