<svg width="60" height="58" viewBox="0 0 60 58" fill="none" xmlns="http://www.w3.org/2000/svg" xmlns:xlink="http://www.w3.org/1999/xlink">
<path d="M9,0L51,0C53.387,0 55.676,1.146 57.364,3.185C59.052,5.225 60,7.991 60,10.875L60,25.375L39,25.375L39,21.75L21,21.75L21,25.375L0,25.375L0,10.875C0,7.991 0.948,5.225 2.636,3.185C4.324,1.146 6.613,0 9,0L9,0ZM27,25.375L33,25.375L33,32.625L27,32.625L27,25.375ZM0,29L21,29L21,32.625L27,39.875L33,39.875L39,32.625L39,29L60,29L60,58L0,58L0,29Z" fill="#338F9B"/>
</svg>
