<svg width="62" height="72" viewBox="0 0 62 72" fill="none" xmlns="http://www.w3.org/2000/svg" xmlns:xlink="http://www.w3.org/1999/xlink">
<path d="M46.491,2.826C46.492,2.279 46.354,1.743 46.095,1.287C45.836,0.832 45.467,0.477 45.036,0.267C44.605,0.057 44.13,0.003 43.672,0.11C43.214,0.217 42.794,0.481 42.464,0.869L33.033,11.928C32.814,12.185 32.64,12.491 32.522,12.826C32.404,13.162 32.344,13.522 32.344,13.885L32.344,29.33L28.85,33.422C28.151,33.204 27.419,33.178 26.709,33.345C26,33.511 25.333,33.867 24.76,34.383C24.186,34.9 23.721,35.564 23.401,36.324C23.081,37.085 22.914,37.921 22.913,38.769C22.913,39.556 23.057,40.334 23.334,41.051C23.611,41.767 24.016,42.406 24.52,42.925C25.025,43.444 25.618,43.83 26.26,44.058C26.903,44.287 27.579,44.352 28.244,44.249C28.91,44.146 29.549,43.878 30.119,43.462C30.689,43.047 31.176,42.493 31.549,41.839C31.922,41.185 32.172,40.445 32.281,39.668C32.39,38.892 32.357,38.097 32.184,37.337L35.678,33.239L48.849,33.239C49.159,33.24 49.466,33.169 49.752,33.031C50.038,32.892 50.299,32.689 50.518,32.432L59.949,21.373C60.28,20.986 60.505,20.493 60.597,19.956C60.688,19.419 60.641,18.862 60.462,18.356C60.284,17.851 59.981,17.418 59.592,17.115C59.204,16.811 58.747,16.649 58.28,16.65L46.491,16.65L46.491,2.826ZM55.658,34.224C56.47,41.109 55.416,48.119 52.647,54.265C49.878,60.411 45.533,65.382 40.225,68.476C34.917,71.57 28.914,72.631 23.065,71.509C17.215,70.387 11.813,67.139 7.622,62.224C3.431,57.308 0.662,50.973 -0.293,44.114C-1.249,37.254 -0.343,30.215 2.297,23.991C4.936,17.768 9.176,12.673 14.418,9.427C19.659,6.181 25.638,4.948 31.509,5.901L29.703,8.018C29.046,8.789 28.524,9.703 28.168,10.71C27.812,11.717 27.629,12.796 27.628,13.885C23.431,13.885 19.329,15.345 15.839,18.079C12.349,20.813 9.629,24.7 8.023,29.247C6.417,33.793 5.997,38.797 6.816,43.624C7.635,48.451 9.656,52.884 12.623,56.364C15.591,59.845 19.372,62.214 23.489,63.175C27.605,64.135 31.872,63.642 35.749,61.759C39.627,59.875 42.941,56.686 45.273,52.594C47.604,48.502 48.849,43.691 48.849,38.769C50.724,38.767 52.522,37.892 53.847,36.336L55.658,34.224ZM27.628,19.415C24.364,19.415 21.173,20.55 18.459,22.677C15.745,24.804 13.629,27.826 12.38,31.363C11.131,34.899 10.804,38.791 11.441,42.545C12.078,46.299 13.65,49.748 15.958,52.454C18.266,55.161 21.207,57.004 24.409,57.751C27.61,58.498 30.929,58.115 33.945,56.65C36.96,55.185 39.538,52.704 41.352,49.522C43.165,46.339 44.133,42.597 44.133,38.769L37.63,38.769L37.041,39.46C36.927,41.585 36.294,43.626 35.216,45.338C34.138,47.05 32.661,48.362 30.963,49.114C29.265,49.867 27.418,50.029 25.644,49.582C23.869,49.134 22.243,48.095 20.959,46.59C19.676,45.085 18.79,43.177 18.408,41.096C18.026,39.016 18.164,36.85 18.806,34.859C19.448,32.868 20.566,31.136 22.027,29.872C23.487,28.608 25.227,27.865 27.039,27.732L27.628,27.041L27.628,19.415Z" fill="#DC3F00"/>
</svg>
