<svg width="54" height="60" viewBox="0 0 54 60" fill="none" xmlns="http://www.w3.org/2000/svg" xmlns:xlink="http://www.w3.org/1999/xlink">
<path d="M40.317,2.381C40.317,1.938 40.2,1.505 39.979,1.137C39.759,0.768 39.445,0.481 39.077,0.311C38.71,0.142 38.305,0.097 37.915,0.184C37.525,0.271 37.167,0.484 36.886,0.798L28.852,9.742C28.666,9.95 28.518,10.197 28.417,10.469C28.317,10.741 28.265,11.032 28.266,11.326L28.266,23.817L25.289,27.126C24.693,26.95 24.07,26.929 23.466,27.064C22.862,27.198 22.293,27.486 21.805,27.903C21.316,28.321 20.92,28.858 20.648,29.473C20.375,30.088 20.232,30.765 20.232,31.451C20.232,32.087 20.354,32.716 20.59,33.296C20.826,33.876 21.171,34.392 21.601,34.812C22.031,35.232 22.536,35.544 23.083,35.729C23.63,35.913 24.206,35.966 24.773,35.883C25.34,35.8 25.884,35.583 26.37,35.247C26.855,34.911 27.271,34.463 27.588,33.934C27.906,33.405 28.119,32.806 28.212,32.178C28.305,31.55 28.277,30.907 28.129,30.292L31.106,26.979L42.325,26.979C42.589,26.979 42.85,26.922 43.094,26.81C43.338,26.698 43.56,26.533 43.747,26.326L51.781,17.381C52.063,17.068 52.255,16.67 52.332,16.235C52.41,15.801 52.37,15.351 52.218,14.942C52.066,14.532 51.808,14.183 51.477,13.937C51.146,13.692 50.757,13.561 50.359,13.562L40.317,13.562L40.317,2.381ZM48.126,27.775C48.817,33.343 47.92,39.013 45.561,43.984C43.202,48.954 39.5,52.974 34.979,55.477C30.457,57.979 25.344,58.837 20.361,57.93C15.378,57.023 10.776,54.396 7.206,50.42C3.636,46.445 1.278,41.321 0.464,35.773C-0.35,30.225 0.422,24.532 2.67,19.499C4.919,14.465 8.53,10.345 12.995,7.72C17.46,5.095 22.553,4.097 27.555,4.868L26.016,6.58C25.456,7.203 25.011,7.943 24.708,8.757C24.405,9.571 24.249,10.444 24.249,11.326C20.673,11.326 17.179,12.506 14.206,14.717C11.233,16.929 8.916,20.072 7.548,23.749C6.18,27.427 5.822,31.473 6.519,35.377C7.217,39.281 8.939,42.867 11.467,45.682C13.995,48.496 17.216,50.413 20.722,51.189C24.228,51.966 27.863,51.567 31.166,50.044C34.469,48.521 37.292,45.941 39.279,42.632C41.265,39.322 42.325,35.431 42.325,31.451C43.923,31.449 45.454,30.741 46.583,29.483L48.126,27.775ZM24.249,15.798C21.468,15.798 18.75,16.716 16.438,18.436C14.125,20.156 12.323,22.6 11.259,25.461C10.195,28.321 9.917,31.468 10.459,34.505C11.002,37.541 12.341,40.33 14.307,42.519C16.273,44.708 18.778,46.199 21.506,46.803C24.233,47.407 27.06,47.097 29.629,45.912C32.198,44.728 34.394,42.721 35.939,40.147C37.483,37.573 38.308,34.547 38.308,31.451L32.769,31.451L32.266,32.01C32.17,33.728 31.63,35.379 30.712,36.764C29.793,38.149 28.536,39.209 27.089,39.818C25.643,40.427 24.07,40.558 22.558,40.196C21.046,39.833 19.661,38.993 18.567,37.776C17.474,36.559 16.719,35.016 16.394,33.333C16.069,31.65 16.187,29.898 16.733,28.288C17.28,26.678 18.233,25.277 19.477,24.255C20.721,23.233 22.203,22.632 23.746,22.524L24.249,21.965L24.249,15.798Z" fill="#000000" fill-opacity="0.5"/>
</svg>
