<svg width="52" height="58" viewBox="0 0 52 58" fill="none" xmlns="http://www.w3.org/2000/svg" xmlns:xlink="http://www.w3.org/1999/xlink">
<path d="M34.896,2.006C34.66,1.546 34.327,1.14 33.919,0.815C33.51,0.49 33.035,0.253 32.526,0.121C32.016,-0.011 31.484,-0.035 30.964,0.049C30.444,0.133 29.948,0.325 29.51,0.61C28.229,1.444 27.229,2.633 26.457,3.8C25.662,4.997 24.96,6.385 24.34,7.846C23.099,10.76 22.059,14.255 21.22,17.757C20.205,22.036 19.444,26.369 18.943,30.734C17.432,29.783 16.217,28.445 15.433,26.866C14.215,24.401 13.955,21.306 13.955,17.246C13.954,16.529 13.736,15.828 13.328,15.232C12.92,14.636 12.34,14.171 11.662,13.897C10.983,13.623 10.236,13.551 9.516,13.691C8.796,13.831 8.134,14.176 7.614,14.683C5.197,17.037 3.28,19.834 1.973,22.913C0.666,25.993 -0.004,29.294 0,32.627C0,36.799 1.055,40.908 3.071,44.588C5.086,48.268 8.001,51.406 11.556,53.724C15.111,56.042 19.197,57.469 23.452,57.878C27.707,58.287 32,57.665 35.95,56.068C39.9,54.471 43.386,51.948 46.098,48.723C48.811,45.497 50.666,41.668 51.5,37.576C52.335,33.483 52.122,29.253 50.881,25.26C49.64,21.266 47.409,17.633 44.386,14.683C42.187,12.54 40.746,11.112 39.379,9.365C38.031,7.639 36.69,5.511 34.896,2.006L34.896,2.006ZM33.874,47.562C32.316,49.081 30.331,50.115 28.171,50.534C26.011,50.953 23.772,50.737 21.737,49.915C19.702,49.093 17.963,47.7 16.738,45.914C15.514,44.127 14.859,42.026 14.857,39.877C14.857,39.877 18.122,41.689 24.143,41.689C24.143,38.064 26,27.189 28.786,25.377C30.643,29.002 31.705,30.064 33.878,32.188C34.914,33.196 35.736,34.395 36.297,35.714C36.857,37.034 37.145,38.448 37.143,39.877C37.145,41.305 36.857,42.72 36.297,44.039C35.736,45.359 34.914,46.557 33.878,47.565L33.874,47.562Z" clip-rule="evenodd" fill-rule="evenodd" fill="#EB9F4A"/>
</svg>
