<svg width="76" height="36" viewBox="0 0 76 36" fill="none" xmlns="http://www.w3.org/2000/svg" xmlns:xlink="http://www.w3.org/1999/xlink">
<path d="M27.898,8.102C28.679,8.883 29.946,8.883 30.727,8.102C31.508,7.322 31.508,6.055 30.727,5.274L27.898,8.102ZM29.313,29.312L27.969,27.831C27.945,27.852 27.921,27.875 27.898,27.898L29.313,29.312ZM46.687,6.688L48.031,8.169C48.055,8.148 48.079,8.125 48.102,8.102L46.687,6.688ZM46.687,29.312L48.102,27.898C48.079,27.875 48.055,27.852 48.031,27.831L46.687,29.312ZM30.656,5.207C29.838,4.465 28.573,4.526 27.831,5.344C27.089,6.163 27.151,7.427 27.969,8.169L30.656,5.207ZM30.727,5.274C28.21,2.756 25.003,1.041 21.512,0.346L20.731,4.269C23.446,4.81 25.941,6.144 27.898,8.102L30.727,5.274ZM21.512,0.346C18.02,-0.349 14.401,0.007 11.112,1.37L12.643,5.065C15.201,4.006 18.015,3.729 20.731,4.269L21.512,0.346ZM11.112,1.37C7.823,2.732 5.012,5.039 3.034,7.999L6.36,10.222C7.898,7.919 10.084,6.125 12.643,5.065L11.112,1.37ZM3.034,7.999C1.056,10.959 0,14.44 0,18L4,18C4,15.231 4.821,12.524 6.36,10.222L3.034,7.999ZM0,18C0,21.56 1.056,25.041 3.034,28.001L6.36,25.778C4.821,23.476 4,20.769 4,18L0,18ZM3.034,28.001C5.012,30.961 7.823,33.268 11.112,34.63L12.643,30.935C10.084,29.875 7.898,28.081 6.36,25.778L3.034,28.001ZM11.112,34.63C14.401,35.993 18.02,36.349 21.512,35.654L20.731,31.731C18.015,32.271 15.201,31.994 12.643,30.935L11.112,34.63ZM21.512,35.654C25.003,34.959 28.21,33.244 30.727,30.726L27.898,27.898C25.941,29.856 23.446,31.19 20.731,31.731L21.512,35.654ZM30.656,30.793C34.384,27.413 37.474,23.39 39.778,18.916L36.222,17.084C34.137,21.132 31.342,24.772 27.969,27.831L30.656,30.793ZM39.778,18.916C41.863,14.868 44.658,11.228 48.031,8.169L45.344,5.207C41.616,8.587 38.526,12.61 36.222,17.084L39.778,18.916ZM48.102,8.102C50.059,6.144 52.554,4.81 55.269,4.269L54.488,0.346C50.997,1.041 47.79,2.756 45.273,5.274L48.102,8.102ZM55.269,4.269C57.985,3.729 60.799,4.006 63.357,5.065L64.888,1.37C61.599,0.007 57.98,-0.349 54.488,0.346L55.269,4.269ZM63.357,5.065C65.916,6.125 68.102,7.919 69.64,10.222L72.966,7.999C70.988,5.039 68.177,2.732 64.888,1.37L63.357,5.065ZM69.64,10.222C71.179,12.524 72,15.231 72,18L76,18C76,14.44 74.944,10.959 72.966,7.999L69.64,10.222ZM72,18C72,20.769 71.179,23.476 69.64,25.778L72.966,28.001C74.944,25.041 76,21.56 76,18L72,18ZM69.64,25.778C68.102,28.081 65.916,29.875 63.357,30.935L64.888,34.63C68.177,33.268 70.988,30.961 72.966,28.001L69.64,25.778ZM63.357,30.935C60.799,31.994 57.985,32.271 55.269,31.731L54.488,35.654C57.98,36.349 61.599,35.993 64.888,34.63L63.357,30.935ZM55.269,31.731C52.554,31.19 50.059,29.856 48.102,27.898L45.273,30.726C47.79,33.244 50.997,34.959 54.488,35.654L55.269,31.731ZM48.031,27.831C44.658,24.772 41.863,21.132 39.778,17.084L36.222,18.916C38.526,23.39 41.616,27.413 45.344,30.793L48.031,27.831ZM39.778,17.084C37.474,12.61 34.384,8.587 30.656,5.207L27.969,8.169C31.342,11.228 34.137,14.868 36.222,18.916L39.778,17.084Z" fill="#DC3F00"/>
</svg>
