<svg width="70" height="60" viewBox="0 0 70 60" fill="none" xmlns="http://www.w3.org/2000/svg" xmlns:xlink="http://www.w3.org/1999/xlink">
<path d="M33.412,14.927L10.883,35.094L10.883,56.861C10.883,57.425 11.089,57.965 11.456,58.364C11.823,58.762 12.32,58.986 12.838,58.986L26.531,58.947C27.048,58.945 27.543,58.72 27.907,58.321C28.272,57.923 28.476,57.384 28.476,56.822L28.476,44.111C28.476,43.547 28.682,43.007 29.049,42.608C29.416,42.21 29.913,41.986 30.431,41.986L38.252,41.986C38.77,41.986 39.267,42.21 39.634,42.608C40.001,43.007 40.207,43.547 40.207,44.111L40.207,56.813C40.206,57.093 40.256,57.37 40.354,57.628C40.452,57.887 40.595,58.122 40.777,58.32C40.959,58.518 41.175,58.675 41.412,58.782C41.65,58.89 41.904,58.945 42.162,58.945L55.85,58.986C56.368,58.986 56.865,58.762 57.232,58.364C57.599,57.965 57.805,57.425 57.805,56.861L57.805,35.08L35.281,14.927C35.016,14.695 34.686,14.568 34.346,14.568C34.006,14.568 33.676,14.695 33.412,14.927ZM68.997,28.635L58.782,19.482L58.782,1.087C58.782,0.664 58.628,0.259 58.353,-0.04C58.078,-0.339 57.705,-0.507 57.316,-0.507L50.473,-0.507C50.084,-0.507 49.711,-0.339 49.436,-0.04C49.161,0.259 49.007,0.664 49.007,1.087L49.007,10.73L38.067,0.947C37.017,0.008 35.7,-0.505 34.34,-0.505C32.981,-0.505 31.663,0.008 30.613,0.947L-0.317,28.635C-0.465,28.768 -0.588,28.932 -0.678,29.117C-0.768,29.302 -0.824,29.504 -0.842,29.713C-0.861,29.921 -0.841,30.131 -0.784,30.332C-0.727,30.532 -0.635,30.718 -0.512,30.879L2.604,34.996C2.726,35.158 2.877,35.292 3.047,35.391C3.217,35.489 3.404,35.55 3.595,35.57C3.787,35.59 3.981,35.569 4.165,35.508C4.35,35.446 4.521,35.346 4.67,35.213L33.412,9.482C33.676,9.25 34.006,9.123 34.346,9.123C34.686,9.123 35.016,9.25 35.281,9.482L64.024,35.213C64.172,35.346 64.344,35.447 64.528,35.508C64.712,35.57 64.905,35.591 65.097,35.571C65.289,35.552 65.475,35.491 65.645,35.393C65.816,35.295 65.966,35.162 66.089,35L69.205,30.883C69.328,30.721 69.42,30.534 69.476,30.333C69.532,30.132 69.55,29.921 69.531,29.712C69.512,29.503 69.455,29.3 69.363,29.115C69.271,28.93 69.147,28.767 68.997,28.635Z" fill="#000000" fill-opacity="0.5"/>
</svg>
