<svg width="70" height="60" viewBox="0 0 70 60" fill="none" xmlns="http://www.w3.org/2000/svg" xmlns:xlink="http://www.w3.org/1999/xlink">
<path d="M33.682,14.927L11.154,35.094L11.154,56.861C11.154,57.425 11.36,57.965 11.726,58.364C12.093,58.762 12.59,58.986 13.109,58.986L26.801,58.947C27.318,58.945 27.813,58.72 28.178,58.321C28.542,57.923 28.747,57.384 28.747,56.822L28.747,44.111C28.747,43.547 28.953,43.007 29.319,42.608C29.686,42.21 30.183,41.986 30.702,41.986L38.522,41.986C39.041,41.986 39.538,42.21 39.904,42.608C40.271,43.007 40.477,43.547 40.477,44.111L40.477,56.813C40.476,57.093 40.526,57.37 40.624,57.628C40.722,57.887 40.866,58.122 41.048,58.32C41.229,58.518 41.445,58.675 41.683,58.782C41.92,58.89 42.175,58.945 42.432,58.945L56.12,58.986C56.638,58.986 57.136,58.762 57.502,58.364C57.869,57.965 58.075,57.425 58.075,56.861L58.075,35.08L35.552,14.927C35.287,14.695 34.957,14.569 34.617,14.569C34.277,14.569 33.947,14.695 33.682,14.927ZM69.268,28.635L59.052,19.482L59.052,1.087C59.052,0.664 58.898,0.259 58.623,-0.04C58.348,-0.339 57.975,-0.507 57.586,-0.507L50.744,-0.507C50.355,-0.507 49.982,-0.339 49.707,-0.04C49.432,0.259 49.277,0.664 49.277,1.087L49.277,10.73L38.338,0.947C37.288,0.008 35.97,-0.505 34.611,-0.505C33.251,-0.505 31.934,0.008 30.884,0.947L-0.046,28.635C-0.195,28.768 -0.318,28.932 -0.408,29.117C-0.498,29.302 -0.554,29.504 -0.572,29.713C-0.59,29.921 -0.57,30.131 -0.514,30.332C-0.457,30.532 -0.365,30.718 -0.242,30.879L2.874,34.996C2.997,35.158 3.147,35.292 3.317,35.391C3.488,35.489 3.674,35.55 3.866,35.57C4.058,35.59 4.252,35.569 4.436,35.508C4.62,35.446 4.792,35.346 4.94,35.213L33.682,9.482C33.947,9.25 34.277,9.123 34.617,9.123C34.957,9.123 35.287,9.25 35.552,9.482L64.294,35.213C64.443,35.346 64.614,35.447 64.798,35.508C64.982,35.57 65.176,35.591 65.367,35.571C65.559,35.552 65.746,35.491 65.916,35.393C66.086,35.295 66.237,35.162 66.359,35L69.475,30.883C69.598,30.721 69.69,30.534 69.746,30.333C69.802,30.132 69.821,29.921 69.802,29.712C69.782,29.503 69.725,29.3 69.633,29.115C69.542,28.93 69.418,28.767 69.268,28.635Z" fill="#000000" fill-opacity="0.5"/>
</svg>
