<svg width="36" height="30" viewBox="0 0 36 30" fill="none" xmlns="http://www.w3.org/2000/svg">
<path d="M17.8411 7.61207L6.57695 17.4666V28.1025C6.57695 28.3779 6.67993 28.642 6.86326 28.8367C7.04658 29.0315 7.29522 29.1409 7.55447 29.1409L14.4008 29.122C14.6592 29.1207 14.9066 29.0107 15.0889 28.8161C15.2711 28.6215 15.3735 28.3582 15.3735 28.0837V21.8724C15.3735 21.5971 15.4764 21.3329 15.6598 21.1382C15.8431 20.9435 16.0917 20.8341 16.351 20.8341H20.2611C20.5203 20.8341 20.769 20.9435 20.9523 21.1382C21.1356 21.3329 21.2386 21.5971 21.2386 21.8724V28.0791C21.2382 28.2158 21.2632 28.3512 21.3121 28.4775C21.3611 28.6039 21.433 28.7187 21.5238 28.8155C21.6146 28.9122 21.7225 28.989 21.8413 29.0414C21.9601 29.0938 22.0875 29.1207 22.2161 29.1207L29.06 29.1409C29.3193 29.1409 29.5679 29.0315 29.7512 28.8367C29.9346 28.642 30.0376 28.3779 30.0376 28.1025V17.4595L18.7759 7.61207C18.6435 7.49871 18.4785 7.43689 18.3085 7.43689C18.1384 7.43689 17.9735 7.49871 17.8411 7.61207ZM35.6339 14.31L30.5263 9.83802V0.849193C30.5263 0.642654 30.4491 0.444574 30.3116 0.298528C30.1741 0.152482 29.9876 0.0704346 29.7932 0.0704346H26.3718C26.1774 0.0704346 25.9909 0.152482 25.8534 0.298528C25.7159 0.444574 25.6387 0.642654 25.6387 0.849193V5.56133L20.1688 0.781052C19.6439 0.32222 18.9852 0.0713518 18.3054 0.0713518C17.6256 0.0713518 16.9669 0.32222 16.442 0.781052L0.976946 14.31C0.902707 14.3752 0.841287 14.4553 0.796194 14.5457C0.7511 14.6361 0.723218 14.7351 0.71414 14.8369C0.705062 14.9388 0.714967 15.0415 0.743287 15.1393C0.771608 15.2371 0.817789 15.328 0.879193 15.4068L2.43712 17.4186C2.49836 17.4977 2.57368 17.5632 2.65878 17.6113C2.74387 17.6594 2.83707 17.6893 2.93303 17.6991C3.02899 17.7089 3.12584 17.6985 3.21802 17.6686C3.3102 17.6386 3.39592 17.5896 3.47025 17.5244L17.8411 4.95131C17.9735 4.83795 18.1384 4.77613 18.3085 4.77613C18.4785 4.77613 18.6435 4.83795 18.7759 4.95131L33.1473 17.5244C33.2215 17.5896 33.3071 17.6386 33.3991 17.6687C33.4912 17.6988 33.5879 17.7093 33.6838 17.6997C33.7797 17.6901 33.8729 17.6604 33.958 17.6125C34.0431 17.5646 34.1185 17.4994 34.1798 17.4205L35.7378 15.4087C35.7991 15.3295 35.8451 15.2381 35.8731 15.1399C35.9011 15.0417 35.9105 14.9386 35.9008 14.8365C35.8912 14.7344 35.8626 14.6353 35.8168 14.545C35.771 14.4546 35.7088 14.3748 35.6339 14.31Z" fill="#41AC78"/>
</svg>
