<svg width="30" height="31" viewBox="0 0 30 31" fill="none" xmlns="http://www.w3.org/2000/svg">
<path d="M9.21064 15.6197C12.0655 15.6197 14.3762 12.2932 14.3762 8.18311C14.3762 4.07305 12.0655 0.74649 9.21064 0.74649C6.35577 0.74649 4.04512 4.07305 4.04512 8.18311C4.04512 12.2932 6.35577 15.6197 9.21064 15.6197ZM12.7527 17.7445H12.3699C11.4106 18.4085 10.3452 18.8069 9.21064 18.8069C8.07607 18.8069 7.0153 18.4085 6.05137 17.7445H5.66857C2.7353 17.7445 0.355469 21.1706 0.355469 25.3936V27.3058C0.355469 29.0654 1.34706 30.493 2.56926 30.493H15.852C17.0742 30.493 18.0658 29.0654 18.0658 27.3058V25.3936C18.0658 21.1706 15.686 17.7445 12.7527 17.7445ZM22.4934 15.6197C24.9378 15.6197 26.921 12.7646 26.921 9.24548C26.921 5.72637 24.9378 2.87124 22.4934 2.87124C20.049 2.87124 18.0658 5.72637 18.0658 9.24548C18.0658 12.7646 20.049 15.6197 22.4934 15.6197ZM24.7072 17.7445H24.5319C23.8909 18.0632 23.2129 18.2757 22.4934 18.2757C21.7739 18.2757 21.0959 18.0632 20.4549 17.7445H20.2796C19.3387 17.7445 18.4717 18.1362 17.7107 18.767C18.836 20.5133 19.5417 22.8306 19.5417 25.3936V27.9433C19.5417 28.0893 19.5186 28.2288 19.514 28.3682H27.6589C28.8811 28.3682 29.8727 26.9407 29.8727 25.1811C29.8727 21.071 27.5621 17.7445 24.7072 17.7445Z" fill="#AB70DF"/>
</svg>
