<svg width="30" height="30" viewBox="0 0 30 30" fill="none" xmlns="http://www.w3.org/2000/svg">
<path d="M17.5701 29.1409H12.0331C11.6861 29.1409 11.3496 29.0276 11.0793 28.8199C10.809 28.6121 10.6211 28.3222 10.5469 27.9984L9.92777 25.26C9.10187 24.9142 8.31874 24.4818 7.59279 23.9707L4.79842 24.821C4.46766 24.9218 4.11078 24.9114 3.78703 24.7916C3.46328 24.6719 3.19215 24.4499 3.01866 24.1625L0.244066 19.5825C0.0723962 19.2949 0.00795554 18.9601 0.0612872 18.633C0.114619 18.3058 0.282565 18.0057 0.53765 17.7816L2.7053 15.892C2.60673 15.036 2.60673 14.1723 2.7053 13.3164L0.53765 11.4312C0.282204 11.207 0.114029 10.9065 0.0606888 10.5791C0.00734843 10.2516 0.0720068 9.91654 0.244066 9.62879L3.01258 5.04584C3.18607 4.7585 3.4572 4.53651 3.78095 4.41674C4.10469 4.29696 4.46158 4.28661 4.79234 4.38739L7.58671 5.2377C7.95787 4.97607 8.34424 4.73188 8.74279 4.51094C9.12764 4.30454 9.52314 4.11704 9.92777 3.94988L10.5484 1.21436C10.6223 0.890508 10.8098 0.600516 11.0798 0.39246C11.3498 0.184405 11.6862 0.0707834 12.0331 0.0704346H17.5701C17.917 0.0707834 18.2533 0.184405 18.5233 0.39246C18.7933 0.600516 18.9808 0.890508 19.0547 1.21436L19.6815 3.95134C20.5063 4.29912 21.2892 4.7314 22.0164 5.24061L24.8123 4.3903C25.1429 4.28988 25.4994 4.30043 25.8228 4.42018C26.1463 4.53994 26.4171 4.76172 26.5906 5.04874L29.3591 9.6317C29.712 10.2233 29.5903 10.9718 29.0655 11.4326L26.8978 13.3222C26.9964 14.1781 26.9964 15.0419 26.8978 15.8978L29.0655 17.7874C29.5903 18.2496 29.712 18.9967 29.3591 19.5883L26.5906 24.1713C26.4171 24.4586 26.1459 24.6806 25.8222 24.8004C25.4984 24.9201 25.1416 24.9305 24.8108 24.8297L22.0164 23.9794C21.291 24.4901 20.5084 24.922 19.683 25.2672L19.0547 27.9984C18.9805 28.322 18.7929 28.6116 18.5229 28.8194C18.2529 29.0272 17.9167 29.1406 17.5701 29.1409ZM14.7955 8.79156C13.1817 8.79156 11.6341 9.40411 10.493 10.4945C9.3519 11.5848 8.71084 13.0637 8.71084 14.6056C8.71084 16.1476 9.3519 17.6265 10.493 18.7168C11.6341 19.8072 13.1817 20.4197 14.7955 20.4197C16.4092 20.4197 17.9569 19.8072 19.098 18.7168C20.2391 17.6265 20.8801 16.1476 20.8801 14.6056C20.8801 13.0637 20.2391 11.5848 19.098 10.4945C17.9569 9.40411 16.4092 8.79156 14.7955 8.79156Z" fill="black" fill-opacity="0.5"/>
</svg>
