<svg width="27" height="30" viewBox="0 0 27 30" fill="none" xmlns="http://www.w3.org/2000/svg">
<path d="M20.1583 1.19051C20.1587 0.969082 20.1 0.752526 19.9897 0.568293C19.8793 0.384059 19.7224 0.240444 19.5386 0.155655C19.3549 0.0708661 19.1527 0.0487214 18.9577 0.0920282C18.7626 0.135335 18.5835 0.242143 18.4431 0.398912L14.4261 4.8712C14.3329 4.97522 14.259 5.09867 14.2087 5.2345C14.1584 5.37033 14.1326 5.51587 14.1328 5.66279V11.9083L12.6445 13.5631C12.3468 13.4751 12.0349 13.4644 11.7329 13.5318C11.4308 13.5992 11.1467 13.7429 10.9024 13.9518C10.6581 14.1607 10.4602 14.4292 10.3238 14.7367C10.1874 15.0442 10.1163 15.3825 10.1158 15.7254C10.1159 16.0437 10.1771 16.3582 10.2951 16.648C10.4132 16.9378 10.5855 17.1963 10.8004 17.406C11.0154 17.6158 11.2681 17.7721 11.5416 17.8644C11.8152 17.9567 12.1033 17.983 12.3867 17.9414C12.67 17.8998 12.9422 17.7914 13.1849 17.6234C13.4277 17.4553 13.6354 17.2315 13.7942 16.9669C13.953 16.7023 14.0593 16.4031 14.1059 16.0891C14.1525 15.7751 14.1384 15.4537 14.0645 15.1463L15.5528 13.4893H21.1626C21.2946 13.4896 21.4253 13.4609 21.5473 13.4048C21.6693 13.3488 21.7802 13.2666 21.8736 13.1628L25.8906 8.69053C26.0314 8.53415 26.1274 8.33475 26.1663 8.11761C26.2052 7.90046 26.1853 7.67534 26.1091 7.47079C26.0329 7.26625 25.904 7.09148 25.7385 6.96865C25.573 6.84582 25.3785 6.78047 25.1796 6.78086H20.1583V1.19051ZM24.0629 13.8873C24.4085 16.6717 23.9599 19.5066 22.7805 21.9919C21.601 24.4771 19.7503 26.4872 17.4895 27.7384C15.2287 28.9895 12.6721 29.4186 10.1805 28.965C7.68886 28.5113 5.38815 27.198 3.60309 25.2102C1.81804 23.2225 0.638804 20.6607 0.231848 17.8867C-0.175108 15.1126 0.21077 12.2663 1.33501 9.74949C2.45925 7.23271 4.26508 5.17261 6.49757 3.85998C8.73006 2.54734 11.2765 2.04848 13.7773 2.4338L13.0081 3.29024C12.728 3.60168 12.5058 3.97152 12.3541 4.37861C12.2025 4.78571 12.1244 5.22208 12.1243 5.66279C10.3367 5.66279 8.58926 6.25295 7.10292 7.35865C5.61659 8.46435 4.45813 10.0359 3.77404 11.8746C3.08996 13.7133 2.91097 15.7366 3.25971 17.6886C3.60846 19.6405 4.46927 21.4335 5.73329 22.8408C6.99732 24.2481 8.60779 25.2065 10.361 25.5947C12.1143 25.983 13.9316 25.7837 15.5831 25.0221C17.2346 24.2605 18.6462 22.9707 19.6394 21.3159C20.6325 19.6611 21.1626 17.7156 21.1626 15.7254C21.9614 15.7246 22.7271 15.3707 23.2916 14.7415L24.0629 13.8873ZM12.1243 7.89893C10.734 7.89893 9.37483 8.35795 8.21879 9.21794C7.06275 10.0779 6.16173 11.3003 5.62966 12.7304C5.09759 14.1605 4.95838 15.7341 5.22963 17.2523C5.50087 18.7705 6.17039 20.165 7.15352 21.2596C8.13665 22.3542 9.38924 23.0996 10.7529 23.4015C12.1165 23.7035 13.53 23.5485 14.8145 22.9562C16.099 22.3638 17.1969 21.3607 17.9694 20.0736C18.7418 18.7865 19.1541 17.2734 19.1541 15.7254H16.3844L16.1333 16.0049C16.085 16.864 15.8151 17.6893 15.3559 18.3818C14.8967 19.0743 14.2678 19.6046 13.5447 19.9089C12.8215 20.2133 12.0348 20.2789 11.279 20.0978C10.5232 19.9167 9.83035 19.4967 9.28367 18.888C8.73699 18.2794 8.35968 17.508 8.19703 16.6666C8.03437 15.8251 8.09328 14.9492 8.36668 14.1441C8.64008 13.339 9.11636 12.6388 9.73836 12.1276C10.3604 11.6164 11.1016 11.3158 11.8733 11.2621L12.1243 10.9826V7.89893Z" fill="black" fill-opacity="0.5"/>
</svg>
