<svg width="32" height="36" viewBox="0 0 32 36" fill="none" xmlns="http://www.w3.org/2000/svg">
<path d="M24.2454 1.41306C24.2459 1.13929 24.1769 0.871529 24.0474 0.643736C23.9179 0.415943 23.7336 0.238373 23.518 0.133537C23.3023 0.0287012 23.0649 0.00132076 22.836 0.0548669C22.607 0.108413 22.3967 0.240474 22.2319 0.434309L17.5162 5.96399C17.4068 6.09261 17.3201 6.24525 17.2611 6.4132C17.202 6.58114 17.1717 6.76108 17.172 6.94275V14.665L15.4249 16.7109C15.0754 16.6022 14.7092 16.5889 14.3547 16.6723C14.0001 16.7556 13.6666 16.9332 13.3798 17.1915C13.093 17.4498 12.8606 17.7819 12.7005 18.1621C12.5404 18.5423 12.4569 18.9605 12.4564 19.3845C12.4565 19.778 12.5283 20.1669 12.6669 20.5253C12.8055 20.8836 13.0077 21.2031 13.2601 21.4625C13.5124 21.7218 13.809 21.9151 14.1302 22.0292C14.4513 22.1434 14.7895 22.1758 15.1221 22.1244C15.4548 22.073 15.7743 21.939 16.0593 21.7312C16.3442 21.5234 16.5881 21.2467 16.7745 20.9196C16.961 20.5924 17.0857 20.2224 17.1404 19.8342C17.1952 19.446 17.1786 19.0485 17.0918 18.6684L18.839 16.6197H25.4243C25.5793 16.62 25.7327 16.5845 25.8759 16.5153C26.0191 16.446 26.1493 16.3443 26.259 16.216L30.9746 10.6863C31.1399 10.493 31.2525 10.2465 31.2982 9.97797C31.3439 9.70948 31.3205 9.43113 31.2311 9.17822C31.1417 8.92531 30.9903 8.70923 30.796 8.55736C30.6018 8.40549 30.3734 8.32468 30.14 8.32517H24.2454V1.41306ZM28.829 17.1118C29.2347 20.5545 28.7081 24.0597 27.3236 27.1326C25.939 30.2054 23.7664 32.6908 21.1124 34.2377C18.4585 35.7847 15.4572 36.3152 12.5323 35.7544C9.60735 35.1935 6.90651 33.5696 4.81101 31.1118C2.71552 28.6541 1.3312 25.4867 0.853465 22.0567C0.375733 18.6268 0.828721 15.1075 2.14848 11.9957C3.46825 8.88385 5.58812 6.33667 8.20887 4.71369C10.8296 3.0907 13.8189 2.47389 16.7547 2.95032L15.8516 4.00925C15.5228 4.39432 15.262 4.8516 15.084 5.35494C14.906 5.85829 14.8143 6.39784 14.8142 6.94275C12.7157 6.94275 10.6643 7.67245 8.91951 9.03957C7.17468 10.4067 5.81475 12.3498 5.01169 14.6233C4.20864 16.8967 3.99852 19.3983 4.40792 21.8118C4.81731 24.2253 5.82783 26.4422 7.31168 28.1822C8.79554 29.9222 10.6861 31.1072 12.7443 31.5873C14.8024 32.0673 16.9358 31.8209 18.8745 30.8793C20.8133 29.9376 22.4704 28.3429 23.6362 26.2968C24.8021 24.2508 25.4243 21.8453 25.4243 19.3845C26.362 19.3836 27.261 18.946 27.9236 18.168L28.829 17.1118ZM14.8142 9.70759C13.182 9.70759 11.5865 10.2751 10.2294 11.3384C8.87235 12.4018 7.81463 13.9131 7.19003 15.6813C6.56543 17.4496 6.402 19.3953 6.72042 21.2724C7.03884 23.1496 7.8248 24.8738 8.97891 26.2272C10.133 27.5805 11.6034 28.5022 13.2042 28.8755C14.805 29.2489 16.4643 29.0573 17.9722 28.3249C19.4801 27.5924 20.769 26.3521 21.6758 24.7608C22.5825 23.1694 23.0665 21.2985 23.0665 19.3845H19.8151L19.5204 19.7301C19.4637 20.7923 19.1468 21.8128 18.6078 22.669C18.0688 23.5252 17.3305 24.1808 16.4816 24.5572C15.6326 24.9335 14.7091 25.0146 13.8219 24.7907C12.9346 24.5668 12.1213 24.0474 11.4795 23.2949C10.8378 22.5423 10.3948 21.5886 10.2039 20.5482C10.0129 19.5078 10.0821 18.4248 10.403 17.4293C10.724 16.4338 11.2831 15.5681 12.0133 14.936C12.7435 14.3039 13.6137 13.9324 14.5195 13.8659L14.8142 13.5203V9.70759Z" fill="#DC3F00"/>
</svg>
